SplineFontDB: 3.0
FontName: MScoreBC
FullName: MScoreBC
FamilyName: MScoreBC
Weight: Book
Copyright: Copyright (c) 2012-15, Maurizio M. Gavioli. Licensed under the SIL Open Font License, Version 1.1
FontLog: "Font with Basso Continuo digits and symbols, matching glyphs in main MuseScore font.+AAoACgAA-Created by Maurizio M. Gavioli, 2012-02-26."
Version: 1.0
DefaultBaseFilename: mscore-BC
ItalicAngle: 0
UnderlinePosition: -100
UnderlineWidth: 50
Ascent: 820
Descent: 204
InvalidEm: 0
LayerCount: 2
Layer: 0 1 "Back" 1
Layer: 1 1 "Fore" 0
XUID: [1021 577 2134738168 7010942]
FSType: 0
OS2Version: 2
OS2_WeightWidthSlopeOnly: 0
OS2_UseTypoMetrics: 1
CreationTime: 1261240856
ModificationTime: 1519999547
PfmFamily: 17
TTFWeight: 400
TTFWidth: 5
LineGap: 0
VLineGap: 0
Panose: 2 0 5 3 0 0 0 0 0 0
OS2TypoAscent: 0
OS2TypoAOffset: 1
OS2TypoDescent: 0
OS2TypoDOffset: 1
OS2TypoLinegap: 0
OS2WinAscent: 0
OS2WinAOffset: 1
OS2WinDescent: 0
OS2WinDOffset: 1
HheadAscent: 0
HheadAOffset: 1
HheadDescent: 0
HheadDOffset: 1
OS2SubXSize: 650
OS2SubYSize: 700
OS2SubXOff: 0
OS2SubYOff: 140
OS2SupXSize: 650
OS2SupYSize: 700
OS2SupXOff: 0
OS2SupYOff: 480
OS2StrikeYSize: 49
OS2StrikeYPos: 258
OS2Vendor: 'PfEd'
OS2CodePages: 00000001.00000000
OS2UnicodeRanges: 00000001.10000000.00000000.00000000
Lookup: 258 0 0 "'kern' Horizontal Kerning lookup" { "'kern' Horizontal Kerning lookup-1" [153,15,0] } ['kern' ('DFLT' <'dflt' > ) ]
MarkAttachClasses: 1
DEI: 91125
TtTable: prep
PUSHW_1
 511
SCANCTRL
PUSHB_1
 1
SCANTYPE
SVTCA[y-axis]
MPPEM
PUSHB_1
 8
LT
IF
PUSHB_2
 1
 1
INSTCTRL
EIF
PUSHB_2
 70
 6
CALL
IF
POP
PUSHB_1
 16
EIF
MPPEM
PUSHB_1
 20
GT
IF
POP
PUSHB_1
 128
EIF
SCVTCI
EndTTInstrs
TtTable: fpgm
PUSHB_1
 0
FDEF
PUSHB_1
 0
SZP0
MPPEM
PUSHB_1
 42
LT
IF
PUSHB_1
 74
SROUND
EIF
PUSHB_1
 0
SWAP
MIAP[rnd]
RTG
PUSHB_1
 6
CALL
IF
RTDG
EIF
MPPEM
PUSHB_1
 42
LT
IF
RDTG
EIF
DUP
MDRP[rp0,rnd,grey]
PUSHB_1
 1
SZP0
MDAP[no-rnd]
RTG
ENDF
PUSHB_1
 1
FDEF
DUP
MDRP[rp0,min,white]
PUSHB_1
 12
CALL
ENDF
PUSHB_1
 2

StartChar: .notdef
Encoding: 65536 -1 0
Width: 364
VWidth: 1000
Flags: W
LayerCount: 2
Fore
SplineSet
33 -136 m 1,0,-1
 33 530 l 1,1,-1
 298 530 l 1,2,-1
 298 -136 l 1,3,-1
 33 -136 l 1,0,-1
66 -103 m 1,4,-1
 265 -103 l 1,5,-1
 265 497 l 1,6,-1
 66 497 l 1,7,-1
 66 -103 l 1,4,-1
EndSplineSet
Validated: 1
EndChar

StartChar: plus
Encoding: 43 43 4
Width: 450
VWidth: 1639
GlyphClass: 2
Flags: MW
HStem: 233 82<11.861 184 266 438.139>
VStem: 184 82<61.8915 233 315 486.109>
LayerCount: 2
Fore
SplineSet
225 49 m 128,-1,1
 207 49 207 49 195.5 61.5 c 128,-1,2
 184 74 184 74 184 90 c 2,3,-1
 184 233 l 1,4,-1
 41 233 l 2,5,6
 23 233 23 233 11.5 245.5 c 128,-1,7
 0 258 0 258 0 274 c 128,-1,8
 0 290 0 290 11.5 302.5 c 128,-1,9
 23 315 23 315 41 315 c 2,10,-1
 184 315 l 1,11,-1
 184 458 l 2,12,13
 184 474 184 474 195.5 486.5 c 128,-1,14
 207 499 207 499 225 499 c 128,-1,15
 243 499 243 499 254.5 486.5 c 128,-1,16
 266 474 266 474 266 458 c 2,17,-1
 266 315 l 1,18,-1
 409 315 l 2,19,20
 427 315 427 315 438.5 302.5 c 128,-1,21
 450 290 450 290 450 274 c 128,-1,22
 450 258 450 258 438.5 245.5 c 128,-1,23
 427 233 427 233 409 233 c 2,24,-1
 266 233 l 1,25,-1
 266 90 l 2,26,27
 266 74 266 74 254.5 61.5 c 128,-1,0
 243 49 243 49 225 49 c 128,-1,1
EndSplineSet
Validated: 1
EndChar

StartChar: zero
Encoding: 48 48 5
Width: 700
VWidth: 1639
GlyphClass: 2
Flags: MW
HStem: -136 48<291.479 407.044> 636 48<291.479 407.044>
VStem: 49 190<114.511 433.419> 459 192<114.581 433.419>
LayerCount: 2
Fore
SplineSet
349.5 636 m 132,-1,1
 279 636 279 636 256 546 c 4,2,3
 240 477 240 477 239 364 c 6,4,-1
 239 184 l 6,5,6
 239 66 239 66 256 2 c 4,7,8
 279 -88 279 -88 349.5 -88 c 132,-1,9
 420 -88 420 -88 443 2 c 4,10,11
 459 71 459 71 459 184 c 6,12,-1
 459 364 l 6,13,14
 459 477 459 477 443 546 c 4,15,0
 420 636 420 636 349.5 636 c 132,-1,1
349 684 m 132,-1,17
 485 684 485 684 568 562 c 132,-1,18
 651 440 651 440 651 274 c 132,-1,19
 651 108 651 108 568 -14 c 132,-1,20
 485 -136 485 -136 349 -136 c 132,-1,21
 213 -136 213 -136 131 -14 c 132,-1,22
 49 108 49 108 49 274 c 132,-1,23
 49 440 49 440 131 562 c 132,-1,16
 213 684 213 684 349 684 c 132,-1,17
EndSplineSet
Validated: 1
EndChar

StartChar: one
Encoding: 49 49 6
Width: 700
VWidth: 1639
GlyphClass: 2
Flags: MW
HStem: -136 38<132.02 210.867 523.133 601.98>
VStem: 272 190<-34.1875 488.288>
LayerCount: 2
Fore
SplineSet
367 663 m 0,0,1
 387 663 387 663 414 674.5 c 128,-1,2
 441 686 441 686 442 686 c 0,3,4
 462 686 462 686 462 658 c 2,5,-1
 462 56 l 2,6,7
 462 -6 462 -6 495.5 -52 c 128,-1,8
 529 -98 529 -98 582 -98 c 0,9,10
 602 -98 602 -98 602 -116 c 0,11,12
 602 -136 602 -136 582 -136 c 0,13,14
 546 -136 546 -136 474.5 -125.5 c 128,-1,15
 403 -115 403 -115 367 -115 c 128,-1,16
 331 -115 331 -115 259.5 -125.5 c 128,-1,17
 188 -136 188 -136 152 -136 c 0,18,19
 132 -136 132 -136 132 -116 c 0,20,21
 132 -98 132 -98 152 -98 c 0,22,23
 204 -98 204 -98 238 -52 c 128,-1,24
 272 -6 272 -6 272 56 c 2,25,-1
 272 458 l 2,26,27
 272 471 272 471 263 480 c 128,-1,28
 254 489 254 489 244 489 c 128,-1,29
 234 489 234 489 228 477 c 2,30,-1
 123 254 l 2,31,32
 116 239 116 239 103 240 c 0,33,34
 93 240 93 240 85 246.5 c 128,-1,35
 77 253 77 253 77 263 c 0,36,37
 77 268 77 268 80 274 c 2,38,-1
 272 684 l 2,39,40
 274 689 274 689 280.5 689 c 128,-1,41
 287 689 287 689 315.5 676 c 128,-1,42
 344 663 344 663 367 663 c 0,0,1
EndSplineSet
Validated: 1
EndChar

StartChar: two
Encoding: 50 50 7
Width: 700
VWidth: 1639
GlyphClass: 2
Flags: MW
HStem: 646 38<257.976 376.167>
VStem: 434 192<336.543 538.703>
LayerCount: 2
Fore
SplineSet
425 -136 m 0,0,1
 328 -136 328 -136 284 -82 c 0,2,3
 268 -62 268 -62 243 -45 c 128,-1,4
 218 -28 218 -28 188 -28 c 0,5,6
 149 -28 149 -28 118 -52.5 c 128,-1,7
 87 -77 87 -77 87 -118 c 0,8,9
 87 -136 87 -136 69 -136 c 0,10,11
 49 -136 49 -136 49 -118 c 0,12,13
 49 -57 49 -57 77.5 -6.5 c 128,-1,14
 106 44 106 44 149 78.5 c 128,-1,15
 192 113 192 113 242 152.5 c 128,-1,16
 292 192 292 192 334.5 229 c 128,-1,17
 377 266 377 266 405.5 322.5 c 128,-1,18
 434 379 434 379 434 446 c 0,19,20
 434 530 434 530 406.5 588 c 128,-1,21
 379 646 379 646 320 646 c 0,22,23
 286 646 286 646 261 629.5 c 128,-1,24
 236 613 236 613 236 586 c 0,25,26
 236 565 236 565 264.5 531 c 128,-1,27
 293 497 293 497 293 474 c 0,28,29
 293 426 293 426 260.5 393.5 c 128,-1,30
 228 361 228 361 182 361 c 0,31,32
 134 361 134 361 101.5 394.5 c 128,-1,33
 69 428 69 428 69 474 c 0,34,35
 69 566 69 566 142.5 625 c 128,-1,36
 216 684 216 684 320 684 c 0,37,38
 443 684 443 684 534.5 617.5 c 128,-1,39
 626 551 626 551 626 446 c 0,40,41
 626 375 626 375 600.5 323 c 128,-1,42
 575 271 575 271 527.5 239 c 128,-1,43
 480 207 480 207 432.5 184.5 c 128,-1,44
 385 162 385 162 321 136 c 128,-1,45
 257 110 257 110 218 85 c 1,46,47
 239 90 239 90 261 90 c 0,48,49
 335 90 335 90 415 42 c 128,-1,50
 495 -6 495 -6 541 -6 c 0,51,52
 567 -6 567 -6 583.5 3.5 c 128,-1,53
 600 13 600 13 605 24.5 c 128,-1,54
 610 36 610 36 616.5 46 c 128,-1,55
 623 56 623 56 631 56 c 0,56,57
 651 56 651 56 651 36 c 0,58,59
 651 -7 651 -7 589 -71.5 c 128,-1,60
 527 -136 527 -136 425 -136 c 0,0,1
EndSplineSet
Validated: 1
EndChar

StartChar: three
Encoding: 51 51 8
Width: 700
VWidth: 1639
GlyphClass: 2
Flags: MW
HStem: -136 38<253.055 383.672> 274 48<197.09 406.917> 646 38<242.754 384.937>
VStem: 433 190<-5.32227 196.416> 433 167<374.481 581.831>
LayerCount: 2
Fore
SplineSet
508 299 m 0,0,1
 508 283 508 283 526 268 c 128,-1,2
 544 253 544 253 565.5 239.5 c 128,-1,3
 587 226 587 226 605 188.5 c 128,-1,4
 623 151 623 151 623 94 c 0,5,6
 623 -16 623 -16 540 -76 c 128,-1,7
 457 -136 457 -136 330 -136 c 0,8,9
 228 -136 228 -136 152.5 -85 c 128,-1,10
 77 -34 77 -34 77 49 c 0,11,12
 77 93 77 93 109 125.5 c 128,-1,13
 141 158 141 158 185.5 158 c 128,-1,14
 230 158 230 158 261 126 c 128,-1,15
 292 94 292 94 292 49 c 0,16,17
 292 29 292 29 259 5.5 c 128,-1,18
 226 -18 226 -18 226 -38 c 0,19,20
 226 -69 226 -69 256.5 -83.5 c 128,-1,21
 287 -98 287 -98 330 -98 c 0,22,23
 386 -98 386 -98 409.5 -42.5 c 128,-1,24
 433 13 433 13 433 94 c 2,25,-1
 433 120 l 2,26,27
 433 174 433 174 429.5 202 c 128,-1,28
 426 230 426 230 407.5 252 c 128,-1,29
 389 274 389 274 351 274 c 2,30,-1
 220 274 l 2,31,32
 197 274 197 274 197 299 c 0,33,34
 197 322 197 322 220 322 c 2,35,-1
 351 322 l 2,36,37
 392 322 392 322 415 353 c 0,38,39
 423 364 423 364 428 389 c 0,40,41
 433 422 433 422 433 484 c 2,42,-1
 433 497 l 2,43,44
 433 646 433 646 323 646 c 0,45,46
 226 646 226 646 226 592 c 0,47,48
 226 574 226 574 255.5 553.5 c 128,-1,49
 285 533 285 533 285 515 c 0,50,51
 285 476 285 476 257.5 448 c 128,-1,52
 230 420 230 420 190.5 420 c 128,-1,53
 151 420 151 420 124 448 c 128,-1,54
 97 476 97 476 97 515 c 0,55,56
 97 592 97 592 164 638 c 128,-1,57
 231 684 231 684 323 684 c 0,58,59
 444 684 444 684 522 637.5 c 128,-1,60
 600 591 600 591 600 497 c 0,61,62
 600 430 600 430 586 393 c 128,-1,63
 572 356 572 356 554 348 c 128,-1,64
 536 340 536 340 522 329.5 c 128,-1,65
 508 319 508 319 508 299 c 0,0,1
EndSplineSet
Validated: 1
EndChar

StartChar: four
Encoding: 52 52 9
Width: 700
VWidth: 1639
GlyphClass: 2
Flags: MW
HStem: -136 38<186.02 264.672 576.328 654.98> 69 48<52 325 517 659.902>
VStem: 325 192<-34.1875 69 117 374.839>
LayerCount: 2
Fore
SplineSet
373 663 m 0,0,1
 411 663 411 663 453 674 c 2,2,-1
 498 686 l 1,3,4
 511 686 511 686 518.5 676 c 128,-1,5
 526 666 526 666 517 658 c 2,6,-1
 52 117 l 1,7,-1
 325 117 l 1,8,-1
 325 331 l 2,9,10
 325 354 325 354 337.5 366.5 c 128,-1,11
 350 379 350 379 369.5 386.5 c 128,-1,12
 389 394 389 394 420.5 431 c 128,-1,13
 452 468 452 468 481 531 c 0,14,15
 486 541 486 541 496 541 c 0,16,17
 517 541 517 541 517 518 c 2,18,-1
 517 117 l 1,19,-1
 635 117 l 2,20,21
 660 117 660 117 660 94 c 0,22,23
 660 69 660 69 635 69 c 2,24,-1
 517 69 l 1,25,-1
 517 56 l 2,26,27
 517 -6 517 -6 550 -52 c 128,-1,28
 583 -98 583 -98 635 -98 c 0,29,30
 655 -98 655 -98 655 -116 c 0,31,32
 655 -136 655 -136 635 -136 c 0,33,34
 599 -136 599 -136 528 -125.5 c 128,-1,35
 457 -115 457 -115 420.5 -115 c 128,-1,36
 384 -115 384 -115 313 -125.5 c 128,-1,37
 242 -136 242 -136 206 -136 c 0,38,39
 186 -136 186 -136 186 -116 c 0,40,41
 186 -98 186 -98 206 -98 c 0,42,43
 258 -98 258 -98 291.5 -52 c 128,-1,44
 325 -6 325 -6 325 56 c 2,45,-1
 325 69 l 1,46,-1
 52 69 l 2,47,48
 26 69 26 69 13.5 81.5 c 128,-1,49
 1 94 1 94 1 107 c 0,50,51
 1 112 1 112 24.5 141.5 c 128,-1,52
 48 171 48 171 82 220 c 128,-1,53
 116 269 116 269 149.5 331.5 c 128,-1,54
 183 394 183 394 206.5 481.5 c 128,-1,55
 230 569 230 569 230 658 c 0,56,57
 230 684 230 684 252 684 c 0,58,59
 255 684 255 684 273 679 c 128,-1,60
 291 674 291 674 319 668.5 c 128,-1,61
 347 663 347 663 373 663 c 0,0,1
EndSplineSet
Validated: 1
EndChar

StartChar: five
Encoding: 53 53 10
Width: 700
VWidth: 1639
GlyphClass: 2
Flags: MW
HStem: -136 38<235.799 387.131>
VStem: 112 47<320 496.749> 446 190<22.7148 246.432>
LayerCount: 2
Fore
SplineSet
136 684 m 6,0,1
 184 677 l 6,2,3
 205 674 205 674 231 671 c 4,4,5
 300 663 300 663 364 663 c 132,-1,6
 428 663 428 663 499 671 c 4,7,8
 527 674 527 674 548 677 c 6,9,-1
 597 684 l 5,10,11
 612 684 612 684 619.5 674 c 132,-1,12
 627 664 627 664 618 658 c 4,13,14
 465 505 465 505 187 505 c 4,15,16
 176 505 176 505 167.5 497 c 132,-1,17
 159 489 159 489 159 477 c 6,18,-1
 159 320 l 5,19,20
 230 390 230 390 331 390 c 4,21,22
 477 390 477 390 556.5 324.5 c 132,-1,23
 636 259 636 259 636 126 c 4,24,25
 636 13 636 13 546 -61.5 c 132,-1,26
 456 -136 456 -136 331 -136 c 4,27,28
 223 -136 223 -136 143.5 -87 c 132,-1,29
 64 -38 64 -38 64 49 c 4,30,31
 64 93 64 93 96 125.5 c 132,-1,32
 128 158 128 158 172.5 158 c 132,-1,33
 217 158 217 158 248 126 c 132,-1,34
 279 94 279 94 279 49 c 4,35,36
 279 29 279 29 246 5.5 c 132,-1,37
 213 -18 213 -18 213 -38 c 4,38,39
 213 -98 213 -98 331 -98 c 4,40,41
 446 -98 446 -98 446 126 c 4,42,43
 446 342 446 342 331 343 c 4,44,45
 228 343 228 343 187 301 c 132,-1,46
 146 259 146 259 136 259 c 4,47,48
 111 259 111 259 112 284 c 6,49,-1
 112 658 l 6,50,51
 112 669 112 669 119 676.5 c 132,-1,52
 126 684 126 684 136 684 c 6,0,1
EndSplineSet
Validated: 1
EndChar

StartChar: six
Encoding: 54 54 11
Width: 700
VWidth: 1639
GlyphClass: 2
Flags: MW
HStem: -136 39<287.966 409.114> 284 38<292.24 408.992> 646 38<312.894 440.893>
VStem: 68 189<42.9758 429> 447 179<-12.6285 200.86>
LayerCount: 2
Fore
SplineSet
380 646 m 0,0,1
 306 646 306 646 281.5 586.5 c 128,-1,2
 257 527 257 527 257 418 c 2,3,-1
 257 300 l 1,4,5
 309 321 309 321 347 322 c 0,6,7
 477 322 477 322 551.5 264.5 c 128,-1,8
 626 207 626 207 626 93.5 c 128,-1,9
 626 -20 626 -20 550.5 -78 c 128,-1,10
 475 -136 475 -136 347 -136 c 0,11,12
 216 -136 216 -136 142 -14.5 c 128,-1,13
 68 107 68 107 68 274 c 0,14,15
 68 440 68 440 154 562 c 128,-1,16
 240 684 240 684 380 684 c 0,17,18
 472 684 472 684 539 637.5 c 128,-1,19
 606 591 606 591 606 515 c 0,20,21
 606 471 606 471 574 439 c 128,-1,22
 542 407 542 407 497.5 407 c 128,-1,23
 453 407 453 407 421 439 c 128,-1,24
 389 471 389 471 389 515 c 0,25,26
 389 558 389 558 421 591 c 0,27,28
 432 604 432 604 452 613 c 1,29,30
 447 626 447 626 432 633 c 0,31,32
 410 646 410 646 380 646 c 0,0,1
350 284 m 128,-1,34
 289 284 289 284 274.5 237 c 128,-1,35
 260 190 260 190 260 94 c 256,36,37
 260 -19 260 -19 274.5 -58 c 128,-1,38
 289 -97 289 -97 350 -97 c 128,-1,39
 411 -97 411 -97 429 -50 c 128,-1,40
 447 -3 447 -3 447 93.5 c 128,-1,41
 447 190 447 190 429 237 c 128,-1,33
 411 284 411 284 350 284 c 128,-1,34
EndSplineSet
Validated: 1
EndChar

StartChar: seven
Encoding: 55 55 12
Width: 700
VWidth: 1639
GlyphClass: 2
Flags: MW
VStem: 64 48<274.098 506.602 622.188 683.902>
LayerCount: 2
Fore
SplineSet
131 610 m 256,0,1
 134 610 134 610 144 623 c 0,2,3
 187 684 187 684 264 684 c 0,4,5
 326 684 326 684 381 638 c 128,-1,6
 436 592 436 592 472 592 c 0,7,8
 511 592 511 592 546 615 c 128,-1,9
 581 638 581 638 601.5 661 c 128,-1,10
 622 684 622 684 628 684 c 0,11,12
 638 684 638 684 646 677.5 c 128,-1,13
 654 671 654 671 654 661 c 0,14,15
 654 654 654 654 613 592 c 128,-1,16
 572 530 572 530 522 448.5 c 128,-1,17
 472 367 472 367 431 245 c 128,-1,18
 390 123 390 123 390 12 c 0,19,20
 390 -31 390 -31 399 -87 c 0,21,22
 406 -130 406 -130 399 -136 c 0,23,24
 394 -141 394 -141 382 -141 c 0,25,26
 377 -141 377 -141 335.5 -128 c 128,-1,27
 294 -115 294 -115 256 -115 c 0,28,29
 222 -115 222 -115 177.5 -128 c 128,-1,30
 133 -141 133 -141 128 -141 c 0,31,32
 117 -141 117 -141 110 -132 c 128,-1,33
 103 -123 103 -123 108 -113 c 0,34,35
 167 28 167 28 251.5 161.5 c 128,-1,36
 336 295 336 295 463 469 c 1,37,38
 415 443 415 443 366 443 c 0,39,40
 314 443 314 443 261 489.5 c 128,-1,41
 208 536 208 536 174 536 c 0,42,43
 149 536 149 536 130.5 507.5 c 128,-1,44
 112 479 112 479 112 422 c 2,45,-1
 112 299 l 2,46,47
 112 274 112 274 89 274 c 0,48,49
 64 274 64 274 64 299 c 2,50,-1
 64 659 l 2,51,52
 64 684 64 684 89 684 c 0,53,54
 112 684 112 684 112 659 c 2,55,-1
 112 636 l 2,56,57
 112 628 112 628 116 622 c 0,58,59
 128 610 128 610 131 610 c 256,0,1
EndSplineSet
Validated: 1
EndChar

StartChar: eight
Encoding: 56 56 13
Width: 700
VWidth: 1639
GlyphClass: 2
Flags: MW
HStem: -136 38<245.9 418.342> 646 38<289.359 457.923>
VStem: 45 72<9.82886 169.053> 70 165<411.5 553.115> 486 169<7.1817 109.101> 550 72<419.261 574.897>
LayerCount: 2
Fore
SplineSet
470 336 m 1,0,1
 550 423 550 423 550 504 c 0,2,3
 550 570 550 570 493.5 608 c 128,-1,4
 437 646 437 646 358 646 c 0,5,6
 302 646 302 646 268.5 611 c 128,-1,7
 235 576 235 576 235 530 c 0,8,9
 235 474 235 474 284 445 c 2,10,-1
 470 336 l 1,0,1
519 308 m 1,11,12
 655 229 655 229 655 100 c 0,13,14
 655 3 655 3 572 -66.5 c 128,-1,15
 489 -136 489 -136 345 -136 c 0,16,17
 224 -136 224 -136 134.5 -72 c 128,-1,18
 45 -8 45 -8 45 94 c 0,19,20
 45 132 45 132 67 171 c 128,-1,21
 89 210 89 210 108 229.5 c 128,-1,22
 127 249 127 249 170 290 c 1,23,24
 70 359 70 359 70 464 c 0,25,26
 70 554 70 554 147 619 c 128,-1,27
 224 684 224 684 358 684 c 0,28,29
 465 684 465 684 543.5 635.5 c 128,-1,30
 622 587 622 587 622 504 c 0,31,32
 622 415 622 415 519 308 c 1,11,12
219 261 m 1,33,34
 117 172 117 172 117 94 c 0,35,36
 117 12 117 12 185 -43 c 128,-1,37
 253 -98 253 -98 345 -98 c 0,38,39
 409 -98 409 -98 447.5 -57 c 128,-1,40
 486 -16 486 -16 486 38 c 0,41,42
 486 107 486 107 429 140 c 2,43,-1
 219 261 l 1,33,34
EndSplineSet
Validated: 1
EndChar

StartChar: nine
Encoding: 57 57 14
Width: 700
VWidth: 1639
GlyphClass: 2
Flags: MW
HStem: -136 38<262.317 386.219> 226 38<290.973 407.392> 645 39<290.854 411.679>
VStem: 74 179<347.14 560.628> 443 189<119 505.024>
LayerCount: 2
Fore
SplineSet
248 -65 m 1,0,1
 255 -76 255 -76 268 -84 c 0,2,3
 293 -99 293 -99 320 -98 c 0,4,5
 394 -98 394 -98 418.5 -38.5 c 128,-1,6
 443 21 443 21 443 130 c 2,7,-1
 443 248 l 1,8,9
 391 227 391 227 353 226 c 0,10,11
 223 226 223 226 148.5 283.5 c 128,-1,12
 74 341 74 341 74 454.5 c 128,-1,13
 74 568 74 568 149.5 626 c 128,-1,14
 225 684 225 684 353 684 c 0,15,16
 484 684 484 684 558 562.5 c 128,-1,17
 632 441 632 441 632 274 c 0,18,19
 632 108 632 108 545.5 -14 c 128,-1,20
 459 -136 459 -136 320 -136 c 0,21,22
 228 -136 228 -136 161 -89.5 c 128,-1,23
 94 -43 94 -43 94 33 c 0,24,25
 94 77 94 77 126 109 c 128,-1,26
 158 141 158 141 202 141 c 128,-1,27
 246 141 246 141 278 109 c 128,-1,28
 310 77 310 77 310 33 c 128,-1,29
 310 -11 310 -11 277 -44 c 0,30,31
 264 -57 264 -57 248 -65 c 1,0,1
349.5 264 m 128,-1,33
 410 264 410 264 425 311 c 128,-1,34
 440 358 440 358 440 454 c 256,35,36
 440 567 440 567 425 606 c 128,-1,37
 410 645 410 645 349.5 645 c 128,-1,38
 289 645 289 645 271 598 c 128,-1,39
 253 551 253 551 253 454.5 c 128,-1,40
 253 358 253 358 271 311 c 128,-1,32
 289 264 289 264 349.5 264 c 128,-1,33
EndSplineSet
Validated: 1
EndChar

StartChar: uniE10E
Encoding: 57614 57614 15
Width: 508
VWidth: 1639
GlyphClass: 2
Flags: MW
VStem: 126 63<-271.243 -59 142 326 526 743.243> 318 62<-195.243 22 221 406 605 819.243>
LayerCount: 2
Back
SplineSet
380 789 m 2,0,1
 380 -165 l 2,2,3
 380 -196 380 -196 349 -196 c 128,-1,4
 318 -196 318 -196 318 -165 c 2,5,-1
 318 789 l 2,6,7
 318 820 318 820 349 820 c 128,-1,8
 380 820 380 820 380 789 c 2,0,1
126 -241 m 2,9,10
 126 713 l 2,11,12
 126 744 126 744 157.5 744 c 128,-1,13
 189 744 189 744 189 713 c 2,14,-1
 189 -241 l 2,15,16
 189 -272 189 -272 157.5 -272 c 128,-1,17
 126 -272 126 -272 126 -241 c 2,9,10
438 72 m 2,18,19
 94 -72 l 2,20,21
 89.2222222222 -74 89.2222222222 -74 81 -74 c 0,22,23
 68 -74 68 -74 58 -64 c 128,-1,24
 48 -54 48 -54 48 -41 c 2,25,-1
 48 61 l 2,26,27
 48 83.3208092486 48 83.3208092486 69 92 c 2,28,-1
 415 235 l 2,29,30
 419.623608018 236.91091314 419.623608018 236.91091314 426 236 c 0,31,32
 443 233 443 233 451.5 225 c 128,-1,33
 460 217 460 217 460 204 c 2,34,-1
 460 102 l 2,35,36
 460 81.2093023256 460 81.2093023256 438 72 c 2,18,19
438 456 m 2,37,-1
 94 313 l 2,38,39
 89.3599019007 311.071122011 89.3599019007 311.071122011 81 312 c 0,40,41
 66 314 66 314 57 323 c 128,-1,42
 48 332 48 332 48 344 c 2,43,-1
 48 446 l 2,44,45
 48 467.260115607 48 467.260115607 69 476 c 2,46,-1
 415 620 l 2,47,48
 419.805555556 622 419.805555556 622 426 622 c 0,49,50
 439 622 439 622 449.5 612 c 128,-1,51
 460 602 460 602 460 589 c 2,52,-1
 460 487 l 2,53,54
 460 465.145348837 460 465.145348837 438 456 c 2,37,-1
EndSplineSet
Fore
SplineSet
189 -32 m 1,0,-1
 189 -241 l 2,1,2
 189 -272 189 -272 157.5 -272 c 128,-1,3
 126 -272 126 -272 126 -241 c 2,4,-1
 126 -59 l 1,5,-1
 94 -72 l 2,6,7
 89 -74 89 -74 81 -74 c 0,8,9
 68 -74 68 -74 58 -64 c 128,-1,10
 48 -54 48 -54 48 -41 c 2,11,-1
 48 61 l 2,12,13
 48 83 48 83 69 92 c 2,14,-1
 126 116 l 1,15,-1
 126 326 l 1,16,-1
 94 313 l 2,17,18
 91 312 91 312 86 312 c 0,19,20
 84 312 84 312 81 312 c 0,21,22
 66 314 66 314 57 323 c 128,-1,23
 48 332 48 332 48 344 c 2,24,-1
 48 446 l 2,25,26
 48 467 48 467 69 476 c 2,27,-1
 126 500 l 1,28,-1
 126 713 l 2,29,30
 126 744 126 744 157.5 744 c 128,-1,31
 189 744 189 744 189 713 c 2,32,-1
 189 526 l 1,33,-1
 318 580 l 1,34,-1
 318 789 l 2,35,36
 318 820 318 820 349 820 c 128,-1,37
 380 820 380 820 380 789 c 2,38,-1
 380 605 l 1,39,-1
 415 620 l 2,40,41
 420 622 420 622 426 622 c 0,42,43
 439 622 439 622 449.5 612 c 128,-1,44
 460 602 460 602 460 589 c 2,45,-1
 460 487 l 2,46,47
 460 465 460 465 438 456 c 2,48,-1
 380 432 l 1,49,-1
 380 221 l 1,50,-1
 415 235 l 2,51,52
 418 236 418 236 422 236 c 0,53,54
 424 236 424 236 426 236 c 0,55,56
 443 233 443 233 451.5 225 c 128,-1,57
 460 217 460 217 460 204 c 2,58,-1
 460 102 l 2,59,60
 460 81 460 81 438 72 c 2,61,-1
 380 48 l 1,62,-1
 380 -165 l 2,63,64
 380 -196 380 -196 349 -196 c 128,-1,65
 318 -196 318 -196 318 -165 c 2,66,-1
 318 22 l 1,67,-1
 189 -32 l 1,0,-1
189 142 m 1,68,-1
 318 195 l 1,69,-1
 318 406 l 1,70,-1
 189 352 l 1,71,-1
 189 142 l 1,68,-1
EndSplineSet
EndChar

StartChar: uniE113
Encoding: 57619 57619 16
Width: 372
VWidth: 1639
GlyphClass: 2
Flags: MW
VStem: 37 79<517 741.25> 258 77<-193.419 31>
LayerCount: 2
Back
SplineSet
37 809 m 1,0,1
 60 820 60 820 80 820 c 0,2,3
 98 820 98 820 121 809 c 1,4,-1
 116 509 l 1,5,-1
 289 542 l 1,6,-1
 294 542 l 2,7,8
 324 542 324 542 324 514 c 2,9,-1
 335 -421 l 5,10,11
 312 -432 312 -432 294 -432 c 128,-1,12
 276 -432 276 -432 253 -421 c 1,13,-1
 258 -121 l 1,14,-1
 84 -154 l 1,15,-1
 80 -154 l 2,16,17
 50 -154 50 -154 50 -126 c 2,18,-1
 37 809 l 1,0,1
260 38 m 1,19,-1
 265 378 l 1,20,-1
 114 350 l 1,21,-1
 109 10 l 1,22,-1
 260 38 l 1,19,-1
EndSplineSet
Fore
SplineSet
37 733 m 1,0,1
 60 744 60 744 80 744 c 0,2,3
 98 744 98 744 121 733 c 1,4,-1
 116 517 l 1,5,-1
 289 550 l 1,6,-1
 294 550 l 2,7,8
 324 550 324 550 324 522 c 2,9,-1
 335 -185 l 1,10,11
 312 -196 312 -196 294 -196 c 128,-1,12
 276 -196 276 -196 253 -185 c 1,13,-1
 258 31 l 1,14,-1
 84 -2 l 1,15,-1
 80 -2 l 2,16,17
 51 -2 51 -2 50 26 c 2,18,-1
 37 733 l 1,0,1
260 190 m 1,19,-1
 265 386 l 1,20,-1
 114 358 l 1,21,-1
 109 162 l 1,22,-1
 260 190 l 1,19,-1
EndSplineSet
Validated: 1
EndChar

StartChar: uniE114
Encoding: 57620 57620 17
Width: 464
VWidth: 1639
GlyphClass: 2
Flags: MW
HStem: 242 68<177.949 307>
VStem: 50 77<396.745 565.179> 296 126<61.8377 213.475>
LayerCount: 2
Fore
SplineSet
138 138 m 2,0,-1
 138 30 l 1,1,-1
 138 12 l 2,2,3
 138 -49 138 -49 143 -96 c 1,4,5
 191 -55 191 -55 218 -29 c 128,-1,6
 245 -3 245 -3 270.5 42 c 128,-1,7
 296 87 296 87 296 131.5 c 128,-1,8
 296 176 296 176 277 209 c 128,-1,9
 258 242 258 242 225 242 c 0,10,11
 187 242 187 242 163.5 211.5 c 128,-1,12
 140 181 140 181 138 138 c 2,0,-1
69 -155 m 2,13,-1
 50 731 l 1,14,15
 71 744 71 744 94 744.5 c 128,-1,16
 117 745 117 745 138 731 c 1,17,-1
 127 255 l 1,18,19
 193 310 193 310 276 310 c 0,20,21
 338 310 338 310 380 260 c 128,-1,22
 422 210 422 210 422 143 c 0,23,24
 422 97 422 97 396 55.5 c 128,-1,25
 370 14 370 14 341 -11 c 128,-1,26
 312 -36 312 -36 252.5 -80 c 128,-1,27
 193 -124 193 -124 181 -134 c 0,28,29
 173 -141 173 -141 159.5 -159 c 128,-1,30
 146 -177 146 -177 134 -186.5 c 128,-1,31
 122 -196 122 -196 107 -196 c 0,32,33
 91 -196 91 -196 80 -184.5 c 128,-1,34
 69 -173 69 -173 69 -155 c 2,13,-1
EndSplineSet
Validated: 1
EndChar

StartChar: I
Encoding: 73 73 21
Width: 412
VWidth: 1000
Flags: MW
HStem: -136 23<22 102.309 312.624 390> 660 24<22 98.5625 311.958 390>
VStem: 142 127<-89.4959 637.106>
LayerCount: 2
Back
SplineSet
380 492 m 2,0,-1
 380 56 l 2,1,2
 380 -6 380 -6 413.5 -52 c 128,-1,3
 447 -98 447 -98 500 -98 c 0,4,5
 520 -98 520 -98 520 -116 c 0,6,7
 520 -136 520 -136 500 -136 c 0,8,9
 464 -136 464 -136 392.5 -125.5 c 128,-1,10
 321 -115 321 -115 285 -115 c 128,-1,11
 249 -115 249 -115 177.5 -125.5 c 128,-1,12
 106 -136 106 -136 70 -136 c 0,13,14
 50 -136 50 -136 50 -116 c 0,15,16
 50 -98 50 -98 70 -98 c 0,17,18
 122 -98 122 -98 156 -52 c 128,-1,19
 190 -6 190 -6 190 56 c 2,20,-1
 190 492 l 2,21,22
 190 554 190 554 156.5 600 c 128,-1,23
 123 646 123 646 70 646 c 0,24,25
 50 646 50 646 50 664 c 0,26,27
 50 684 50 684 70 684 c 0,28,29
 106 684 106 684 177.5 673.5 c 128,-1,30
 249 663 249 663 285 663 c 128,-1,31
 321 663 321 663 392.5 673.5 c 128,-1,32
 464 684 464 684 500 684 c 0,33,34
 520 684 520 684 520 664 c 0,35,36
 520 646 520 646 500 646 c 0,37,38
 448 646 448 646 414 600 c 128,-1,39
 380 554 380 554 380 492 c 2,0,-1
EndSplineSet
Fore
SplineSet
142 -1 m 2,0,-1
 142 549 l 2,1,2
 142 617 142 617 122 636 c 128,-1,3
 102 655 102 655 22 660 c 1,4,-1
 22 684 l 1,5,-1
 390 684 l 1,6,-1
 390 660 l 1,7,8
 312 656 312 656 290.5 636.5 c 128,-1,9
 269 617 269 617 269 549 c 2,10,-1
 269 -1 l 2,11,12
 269 -69 269 -69 291 -89.5 c 128,-1,13
 313 -110 313 -110 390 -113 c 1,14,-1
 390 -136 l 1,15,-1
 22 -136 l 1,16,-1
 22 -113 l 1,17,18
 100 -111 100 -111 121 -90.5 c 128,-1,19
 142 -70 142 -70 142 -1 c 2,0,-1
EndSplineSet
Validated: 1
EndChar

StartChar: parenleft
Encoding: 40 40 22
Width: 333
VWidth: 1000
Flags: MW
VStem: 48 86<114.395 408.371>
LayerCount: 2
Fore
SplineSet
292 -169 m 1,0,1
 266 -153 266 -153 238 -130.5 c 128,-1,2
 210 -108 210 -108 174.5 -68 c 128,-1,3
 139 -28 139 -28 112 17.5 c 128,-1,4
 85 63 85 63 66.5 127 c 128,-1,5
 48 191 48 191 48 260 c 0,6,7
 48 332 48 332 66.5 396.5 c 128,-1,8
 85 461 85 461 110 503.5 c 128,-1,9
 135 546 135 546 173.5 585.5 c 128,-1,10
 212 625 212 625 237 644 c 128,-1,11
 262 663 262 663 295 684 c 1,12,-1
 304 668 l 1,13,14
 260 632 260 632 233 603 c 128,-1,15
 206 574 206 574 181 527.5 c 128,-1,16
 156 481 156 481 145 416.5 c 128,-1,17
 134 352 134 352 134 263 c 0,18,19
 134 170 134 170 145 103 c 128,-1,20
 156 36 156 36 181 -11.5 c 128,-1,21
 206 -59 206 -59 233 -89 c 128,-1,22
 260 -119 260 -119 304 -153 c 1,23,-1
 292 -169 l 1,0,1
EndSplineSet
Validated: 1
EndChar

StartChar: parenright
Encoding: 41 41 23
Width: 333
VWidth: 1000
Flags: MW
VStem: 199 86<106.099 399.653>
LayerCount: 2
Fore
SplineSet
41 684 m 1,0,1
 67 668 67 668 95 645.5 c 128,-1,2
 123 623 123 623 158.5 583 c 128,-1,3
 194 543 194 543 221 497.5 c 128,-1,4
 248 452 248 452 266.5 388 c 128,-1,5
 285 324 285 324 285 255 c 0,6,7
 285 183 285 183 266.5 118.5 c 128,-1,8
 248 54 248 54 223 11.5 c 128,-1,9
 198 -31 198 -31 159.5 -70.5 c 128,-1,10
 121 -110 121 -110 96 -129 c 128,-1,11
 71 -148 71 -148 38 -169 c 1,12,-1
 29 -153 l 1,13,14
 73 -118 73 -118 100 -88 c 128,-1,15
 127 -58 127 -58 152 -11.5 c 128,-1,16
 177 35 177 35 188 99.5 c 128,-1,17
 199 164 199 164 199 252 c 0,18,19
 199 373 199 373 177 454 c 128,-1,20
 155 535 155 535 122 578 c 128,-1,21
 89 621 89 621 29 668 c 1,22,-1
 41 684 l 1,0,1
EndSplineSet
Validated: 1
EndChar

StartChar: slash
Encoding: 47 47 24
Width: 700
VWidth: 1639
Flags: W
LayerCount: 2
Fore
SplineSet
178 -244 m 1,0,-1
 96 -244 l 1,1,-1
 522 820 l 1,2,-1
 604 820 l 1,3,-1
 178 -244 l 1,0,-1
EndSplineSet
Validated: 1
EndChar

StartChar: backslash
Encoding: 92 92 25
Width: 700
VWidth: 1639
Flags: W
LayerCount: 2
Fore
SplineSet
178 820 m 1,0,-1
 604 -244 l 1,1,-1
 522 -244 l 1,2,-1
 96 820 l 1,3,-1
 178 820 l 1,0,-1
EndSplineSet
Validated: 1
EndChar

StartChar: V
Encoding: 86 86 26
Width: 883
VWidth: 1000
Flags: MW
HStem: 660 24<20 71.7822 273.047 349 609 675.978 811.661 863>
LayerCount: 2
Back
SplineSet
534 -136 m 17,0,1
 476 -136 476 -136 418 -136 c 9,2,-1
 187 496 l 2,3,4
 133 645 133 645 70 646 c 0,5,6
 50 646 50 646 50 664 c 0,7,8
 50 684 50 684 70 684 c 0,9,10
 106 684 106 684 177.5 673.5 c 128,-1,11
 249 663 249 663 285 663 c 128,-1,12
 321 663 321 663 392.5 673.5 c 128,-1,13
 464 684 464 684 500 684 c 0,14,15
 520 684 520 684 520 664 c 0,16,17
 520 646 520 646 500 646 c 0,18,19
 377 646 377 646 377 560 c 0,20,21
 377 531 377 531 391 492 c 2,22,-1
 540 83 l 25,23,-1
 689 492 l 2,24,25
 694 504 694 504 694 521 c 0,26,27
 694 566 694 566 659 606 c 128,-1,28
 624 646 624 646 569 646 c 0,29,30
 549 646 549 646 549 664 c 0,31,32
 549 684 549 684 569 684 c 0,33,34
 605 684 605 684 647.5 673.5 c 128,-1,35
 690 663 690 663 726 663 c 128,-1,36
 762 663 762 663 804 673.5 c 128,-1,37
 846 684 846 684 882 684 c 0,38,39
 902 684 902 684 902 664 c 0,40,41
 902 648 902 648 882 646 c 0,42,43
 815 639 815 639 762 492 c 2,44,-1
 534 -136 l 17,0,1
EndSplineSet
Fore
SplineSet
863 684 m 1,0,-1
 863 660 l 1,1,2
 817 658 817 658 798 638 c 128,-1,3
 779 618 779 618 749 545 c 2,4,-1
 474 -150 l 1,5,-1
 456 -150 l 1,6,-1
 151 530 l 2,7,8
 115 612 115 612 91 635 c 128,-1,9
 67 658 67 658 20 660 c 1,10,-1
 20 684 l 1,11,-1
 349 684 l 1,12,-1
 349 660 l 1,13,14
 314 658 314 658 313 658 c 0,15,16
 256 654 256 654 256 620 c 0,17,18
 256 595 256 595 307 482 c 2,19,-1
 494 63 l 1,20,-1
 676 518 l 2,21,22
 700 577 700 577 700 608 c 0,23,24
 700 634 700 634 680 646 c 128,-1,25
 660 658 660 658 609 660 c 1,26,-1
 609 684 l 1,27,-1
 863 684 l 1,0,-1
EndSplineSet
Validated: 1
EndChar

StartChar: uni2161
Encoding: 8545 8545 28
Width: 780
VWidth: 1000
Flags: MW
HStem: -136 24<22 103.508 307.228 475.373 676.91 758> 660 24<22 101.16 305.438 476.025 679.958 758>
VStem: 142 127<-89.996 638.294> 510 127<-89.3008 637.106>
LayerCount: 2
Fore
SplineSet
758 -136 m 1,0,-1
 22 -136 l 1,1,-1
 22 -112 l 1,2,3
 100 -110 100 -110 121 -90 c 128,-1,4
 142 -70 142 -70 142 -1 c 2,5,-1
 142 549 l 2,6,7
 142 617 142 617 122 636.5 c 128,-1,8
 102 656 102 656 22 660 c 1,9,-1
 22 684 l 1,10,-1
 758 684 l 1,11,-1
 758 660 l 1,12,13
 680 656 680 656 658.5 636.5 c 128,-1,14
 637 617 637 617 637 549 c 2,15,-1
 637 -1 l 2,16,17
 637 -69 637 -69 659 -89.5 c 128,-1,18
 681 -110 681 -110 758 -112 c 1,19,-1
 758 -136 l 1,0,-1
390 -112 m 0,20,21
 467 -112 467 -112 488.5 -92 c 128,-1,22
 510 -72 510 -72 510 -1 c 2,23,-1
 510 549 l 2,24,25
 510 620 510 620 489 640 c 128,-1,26
 468 660 468 660 390 660 c 0,27,28
 313 660 313 660 291 639 c 128,-1,29
 269 618 269 618 269 549 c 2,30,-1
 269 -1 l 2,31,32
 269 -69 269 -69 291.5 -90.5 c 128,-1,33
 314 -112 314 -112 390 -112 c 0,20,21
EndSplineSet
Validated: 1
EndChar

StartChar: uni2162
Encoding: 8546 8546 29
Width: 1148
VWidth: 1000
Flags: MW
HStem: -136 24<22 103.508 307.228 475.373 676.91 839.508 1044.91 1126> 660 24<22 101.16 305.438 476.025 1047.96 1126>
VStem: 142 127<-89.996 638.294> 510 127<-89.3008 637.106> 878 127<-89.363 637.106>
LayerCount: 2
Fore
SplineSet
390 -112 m 0,0,1
 467 -112 467 -112 488.5 -92 c 128,-1,2
 510 -72 510 -72 510 -1 c 2,3,-1
 510 549 l 2,4,5
 510 620 510 620 489 640 c 128,-1,6
 468 660 468 660 390 660 c 0,7,8
 313 660 313 660 291 639 c 128,-1,9
 269 618 269 618 269 549 c 2,10,-1
 269 -1 l 2,11,12
 269 -69 269 -69 291.5 -90.5 c 128,-1,13
 314 -112 314 -112 390 -112 c 0,0,1
22 684 m 1,14,-1
 1126 684 l 1,15,-1
 1126 660 l 1,16,17
 1048 656 1048 656 1026.5 636.5 c 128,-1,18
 1005 617 1005 617 1005 549 c 2,19,-1
 1005 -1 l 2,20,21
 1005 -69 1005 -69 1027 -89.5 c 128,-1,22
 1049 -110 1049 -110 1126 -112 c 1,23,-1
 1126 -136 l 1,24,-1
 22 -136 l 1,25,-1
 22 -112 l 1,26,27
 100 -110 100 -110 121 -90 c 128,-1,28
 142 -70 142 -70 142 -1 c 2,29,-1
 142 549 l 2,30,31
 142 617 142 617 122 636.5 c 128,-1,32
 102 656 102 656 22 660 c 1,33,-1
 22 684 l 1,14,-1
758 660 m 1,34,35
 680 656 680 656 658.5 636.5 c 128,-1,36
 637 617 637 617 637 549 c 2,37,-1
 637 -1 l 2,38,39
 637 -69 637 -69 659 -89.5 c 128,-1,40
 681 -110 681 -110 758 -112 c 1,41,42
 836 -110 836 -110 857 -90 c 128,-1,43
 878 -70 878 -70 878 -1 c 2,44,-1
 878 549 l 2,45,46
 878 617 878 617 857.5 636 c 128,-1,47
 837 655 837 655 758 660 c 1,34,35
EndSplineSet
Validated: 1
EndChar

StartChar: uni2163
Encoding: 8547 8547 30
Width: 1249
VWidth: 1000
Flags: MW
HStem: -136 24<22 103.508 308.91 390> 660 24<22 101.16 307.228 441.323 641.047 717 977 1043.98 1179.66 1231>
VStem: 142 127<-89.363 638.294>
LayerCount: 2
Fore
SplineSet
390 660 m 0,0,1
 314 660 314 660 291.5 638.5 c 128,-1,2
 269 617 269 617 269 549 c 2,3,-1
 269 -1 l 2,4,5
 269 -69 269 -69 291 -89.5 c 128,-1,6
 313 -110 313 -110 390 -112 c 1,7,-1
 390 -136 l 1,8,-1
 22 -136 l 1,9,-1
 22 -112 l 1,10,11
 100 -110 100 -110 121 -90 c 128,-1,12
 142 -70 142 -70 142 -1 c 2,13,-1
 142 549 l 2,14,15
 142 617 142 617 122 636.5 c 128,-1,16
 102 656 102 656 22 660 c 1,17,-1
 22 684 l 1,18,-1
 717 684 l 1,19,-1
 717 660 l 1,20,21
 682 658 682 658 681 658 c 0,22,23
 624 654 624 654 624 620 c 0,24,25
 624 595 624 595 675 482 c 2,26,-1
 862 63 l 1,27,-1
 1044 518 l 2,28,29
 1068 577 1068 577 1068 608 c 0,30,31
 1068 634 1068 634 1048 646 c 128,-1,32
 1028 658 1028 658 977 660 c 1,33,-1
 977 684 l 1,34,-1
 1231 684 l 1,35,-1
 1231 660 l 1,36,37
 1185 658 1185 658 1166 638 c 128,-1,38
 1147 618 1147 618 1117 545 c 2,39,-1
 842 -150 l 1,40,-1
 824 -150 l 1,41,-1
 519 530 l 2,42,43
 482 612 482 612 457.5 636 c 128,-1,44
 433 660 433 660 390 660 c 0,0,1
EndSplineSet
Validated: 1
EndChar

StartChar: uni2165
Encoding: 8549 8549 31
Width: 1252
VWidth: 1000
Flags: MW
HStem: -136 24<862 943.508 1148.91 1230> 660 24<20 72.1426 273.047 349 609 675.978 807.91 948.08 1151.96 1230>
VStem: 982 127<-89.363 637.106>
LayerCount: 2
Fore
SplineSet
863 660 m 0,0,1
 817 660 817 660 798.5 641 c 128,-1,2
 780 622 780 622 749 545 c 2,3,-1
 474 -150 l 1,4,-1
 456 -150 l 1,5,-1
 151 530 l 1,6,7
 111 613 111 613 88.5 636 c 128,-1,8
 66 659 66 659 20 660 c 1,9,-1
 20 684 l 1,10,-1
 349 684 l 1,11,-1
 349 660 l 1,12,13
 314 658 314 658 313 658 c 0,14,15
 256 654 256 654 256 620 c 0,16,17
 256 595 256 595 307 482 c 2,18,-1
 494 63 l 1,19,-1
 676 518 l 2,20,21
 700 577 700 577 700 608 c 0,22,23
 700 634 700 634 680 646 c 128,-1,24
 660 658 660 658 609 660 c 1,25,-1
 609 684 l 1,26,-1
 1230 684 l 1,27,-1
 1230 660 l 1,28,29
 1152 656 1152 656 1130.5 636.5 c 128,-1,30
 1109 617 1109 617 1109 549 c 2,31,-1
 1109 -1 l 2,32,33
 1109 -69 1109 -69 1131 -89.5 c 128,-1,34
 1153 -110 1153 -110 1230 -112 c 1,35,-1
 1230 -136 l 1,36,-1
 862 -136 l 1,37,-1
 862 -112 l 1,38,39
 940 -110 940 -110 961 -90 c 128,-1,40
 982 -70 982 -70 982 -1 c 2,41,-1
 982 549 l 2,42,43
 982 620 982 620 961 640 c 128,-1,44
 940 660 940 660 863 660 c 0,0,1
EndSplineSet
Validated: 1
EndChar

StartChar: uni2166
Encoding: 8550 8550 32
Width: 1619
VWidth: 1000
Flags: MW
HStem: -136 24<862 943.508 1146.5 1311.31 1515.66 1597> 660 24<20 72.1426 273.047 349 609 675.978 807.91 948.08 1146.57 1315.08 1518.74 1597>
VStem: 982 127<-90.4957 638.496> 1349 126<-88.9258 636.496>
LayerCount: 2
Fore
SplineSet
1109 549 m 2,0,-1
 1109 -1 l 2,1,2
 1109 -69 1109 -69 1131 -90.5 c 128,-1,3
 1153 -112 1153 -112 1229 -112 c 0,4,5
 1303 -112 1303 -112 1326 -91 c 128,-1,6
 1349 -70 1349 -70 1349 -1 c 2,7,-1
 1349 549 l 2,8,9
 1349 620 1349 620 1328 640 c 128,-1,10
 1307 660 1307 660 1230 660 c 128,-1,11
 1153 660 1153 660 1131 638.5 c 128,-1,12
 1109 617 1109 617 1109 549 c 2,0,-1
609 684 m 1,13,-1
 1597 684 l 1,14,-1
 1597 660 l 1,15,16
 1519 656 1519 656 1497 636.5 c 128,-1,17
 1475 617 1475 617 1475 549 c 2,18,-1
 1475 -1 l 2,19,20
 1475 -69 1475 -69 1497.5 -89.5 c 128,-1,21
 1520 -110 1520 -110 1597 -112 c 1,22,-1
 1597 -136 l 1,23,-1
 862 -136 l 1,24,-1
 862 -112 l 1,25,26
 940 -110 940 -110 961 -90 c 128,-1,27
 982 -70 982 -70 982 -1 c 2,28,-1
 982 549 l 2,29,30
 982 620 982 620 961 640 c 128,-1,31
 940 660 940 660 863 660 c 0,32,33
 817 660 817 660 798.5 641 c 128,-1,34
 780 622 780 622 749 545 c 2,35,-1
 474 -150 l 1,36,-1
 456 -150 l 1,37,-1
 151 530 l 1,38,39
 111 613 111 613 88.5 636 c 128,-1,40
 66 659 66 659 20 660 c 1,41,-1
 20 684 l 1,42,-1
 349 684 l 1,43,-1
 349 660 l 1,44,45
 314 658 314 658 313 658 c 0,46,47
 256 654 256 654 256 620 c 0,48,49
 256 595 256 595 307 482 c 2,50,-1
 494 63 l 1,51,-1
 676 518 l 2,52,53
 700 577 700 577 700 608 c 0,54,55
 700 634 700 634 680 646 c 128,-1,56
 660 658 660 658 609 660 c 1,57,-1
 609 684 l 1,13,-1
EndSplineSet
Validated: 1
EndChar

StartChar: uni2167
Encoding: 8551 8551 33
Width: 1989
VWidth: 1000
Flags: MW
HStem: -136 24<863 944.755 1148.23 1316.37 1516.23 1684.37 1885.91 1967> 660 24<20 71.7822 273.047 349 609 675.978 809.041 949.318 1146.44 1317.03 1514.44 1685.03 1888.96 1967>
VStem: 984 126<-89.996 638.996> 1351 127<-90.0129 638.996> 1719 127<-89.3008 637.106>
LayerCount: 2
Fore
SplineSet
1967 -136 m 1,0,-1
 863 -136 l 1,1,-1
 863 -112 l 1,2,3
 941 -110 941 -110 962.5 -90 c 128,-1,4
 984 -70 984 -70 984 -1 c 2,5,-1
 984 549 l 2,6,7
 984 620 984 620 962.5 640 c 128,-1,8
 941 660 941 660 863 660 c 0,9,10
 818 660 818 660 798.5 640 c 128,-1,11
 779 620 779 620 749 545 c 2,12,-1
 474 -150 l 1,13,-1
 456 -150 l 1,14,-1
 151 530 l 2,15,16
 115 612 115 612 91 635 c 128,-1,17
 67 658 67 658 20 660 c 1,18,-1
 20 684 l 1,19,-1
 349 684 l 1,20,-1
 349 660 l 1,21,22
 314 658 314 658 313 658 c 0,23,24
 256 654 256 654 256 620 c 0,25,26
 256 595 256 595 307 482 c 2,27,-1
 494 63 l 1,28,-1
 676 518 l 2,29,30
 700 577 700 577 700 608 c 0,31,32
 700 634 700 634 680 646 c 128,-1,33
 660 658 660 658 609 660 c 1,34,-1
 609 684 l 1,35,-1
 1967 684 l 1,36,-1
 1967 660 l 1,37,38
 1889 656 1889 656 1867.5 636.5 c 128,-1,39
 1846 617 1846 617 1846 549 c 2,40,-1
 1846 -1 l 2,41,42
 1846 -69 1846 -69 1868 -89.5 c 128,-1,43
 1890 -110 1890 -110 1967 -112 c 1,44,-1
 1967 -136 l 1,0,-1
1599 -112 m 0,45,46
 1676 -112 1676 -112 1697.5 -92 c 128,-1,47
 1719 -72 1719 -72 1719 -1 c 2,48,-1
 1719 549 l 2,49,50
 1719 620 1719 620 1698 640 c 128,-1,51
 1677 660 1677 660 1599 660 c 0,52,53
 1522 660 1522 660 1500 639 c 128,-1,54
 1478 618 1478 618 1478 549 c 2,55,-1
 1478 -1 l 2,56,57
 1478 -69 1478 -69 1500.5 -90.5 c 128,-1,58
 1523 -112 1523 -112 1599 -112 c 0,45,46
1231 -112 m 0,59,60
 1308 -112 1308 -112 1329.5 -92 c 128,-1,61
 1351 -72 1351 -72 1351 -1 c 2,62,-1
 1351 549 l 2,63,64
 1351 620 1351 620 1330 640 c 128,-1,65
 1309 660 1309 660 1231 660 c 0,66,67
 1154 660 1154 660 1132 639 c 128,-1,68
 1110 618 1110 618 1110 549 c 2,69,-1
 1110 -1 l 2,70,71
 1110 -69 1110 -69 1132.5 -90.5 c 128,-1,72
 1155 -112 1155 -112 1231 -112 c 0,59,60
EndSplineSet
Validated: 1
EndChar

StartChar: uniE201
Encoding: 57857 57857 35
Width: 700
VWidth: 1639
Flags: W
HStem: -136 82<498.029 665 747 959.139> -136 38<132.02 210.867> -115 778<294.98 439.02>
VStem: 77 46<240.255 254> 272 190<-19.6641 488.288> 665 82<-307.109 -136 -54 157.109>
LayerCount: 2
Fore
SplineSet
582 -136 m 2,0,1
 546 -136 546 -136 474.5 -125.5 c 128,-1,2
 403 -115 403 -115 367 -115 c 128,-1,3
 331 -115 331 -115 259.5 -125.5 c 128,-1,4
 188 -136 188 -136 152 -136 c 0,5,6
 132 -136 132 -136 132 -116 c 0,7,8
 132 -98 132 -98 152 -98 c 0,9,10
 204 -98 204 -98 238 -52 c 128,-1,11
 272 -6 272 -6 272 56 c 2,12,-1
 272 458 l 2,13,14
 272 471 272 471 263 480 c 128,-1,15
 254 489 254 489 244 489 c 0,16,17
 233.650224215 489 233.650224215 489 228 477 c 2,18,-1
 123 254 l 2,19,20
 115.939414115 239.004660453 115.939414115 239.004660453 103 240 c 0,21,22
 93 240 93 240 85 246.5 c 128,-1,23
 77 253 77 253 77 263 c 0,24,25
 77 267.59375 77 267.59375 80 274 c 2,26,-1
 272 684 l 2,27,28
 274.341463415 689 274.341463415 689 280.5 689 c 0,29,30
 287 689 287 689 315.5 676 c 128,-1,31
 344 663 344 663 367 663 c 0,32,33
 387 663 387 663 414 674.5 c 128,-1,34
 441 686 441 686 442 686 c 0,35,36
 462 686 462 686 462 658 c 2,37,-1
 462 56 l 2,38,39
 462 -6 462 -6 495.5 -30 c 128,-1,40
 529 -54 529 -54 582 -54 c 2,41,-1
 665 -54 l 1,42,-1
 665 129 l 2,43,44
 665 145 665 145 676.5 157.5 c 128,-1,45
 688 170 688 170 706 170 c 128,-1,46
 724 170 724 170 735.5 157.5 c 128,-1,47
 747 145 747 145 747 129 c 2,48,-1
 747 -54 l 1,49,-1
 930 -54 l 2,50,51
 948 -54 948 -54 959.5 -66.5 c 128,-1,52
 971 -79 971 -79 971 -95 c 128,-1,53
 971 -111 971 -111 959.5 -123.5 c 128,-1,54
 948 -136 948 -136 930 -136 c 2,55,-1
 747 -136 l 1,56,-1
 747 -279 l 2,57,58
 747 -295 747 -295 735.5 -307.5 c 128,-1,59
 724 -320 724 -320 706 -320 c 128,-1,60
 688 -320 688 -320 676.5 -307.5 c 128,-1,61
 665 -295 665 -295 665 -279 c 2,62,-1
 665 -136 l 1,63,-1
 582 -136 l 2,0,1
EndSplineSet
EndChar

StartChar: uniE202
Encoding: 57858 57858 36
Width: 700
VWidth: 1639
Flags: W
HStem: -136 82<508.584 608 690 902.139> -28 118<162.556 275.568> 646 38<257.976 376.167>
VStem: 49 38<-135.982 -64.8746> 69 167<451 599.5> 434 192<336.543 538.703> 608 82<-307.109 -136 -54 157.109>
LayerCount: 2
Fore
SplineSet
508 -136 m 2,0,1
 395 -136 395 -136 325 -82 c 0,2,3
 289 -54 289 -54 262 -44 c 0,4,5
 214 -28 214 -28 188 -28 c 0,6,7
 149 -28 149 -28 118 -52.5 c 128,-1,8
 87 -77 87 -77 87 -118 c 0,9,10
 87 -136 87 -136 69 -136 c 0,11,12
 49 -136 49 -136 49 -118 c 0,13,14
 49 -57 49 -57 77.5 -6.5 c 128,-1,15
 106 44 106 44 149 78.5 c 128,-1,16
 192 113 192 113 242 152.5 c 128,-1,17
 292 192 292 192 334.5 229 c 128,-1,18
 377 266 377 266 405.5 322.5 c 128,-1,19
 434 379 434 379 434 446 c 0,20,21
 434 530 434 530 406.5 588 c 128,-1,22
 379 646 379 646 320 646 c 0,23,24
 286 646 286 646 261 629.5 c 128,-1,25
 236 613 236 613 236 586 c 0,26,27
 236 565 236 565 264.5 531 c 128,-1,28
 293 497 293 497 293 474 c 0,29,30
 293 426 293 426 260.5 393.5 c 128,-1,31
 228 361 228 361 182 361 c 0,32,33
 134 361 134 361 101.5 394.5 c 128,-1,34
 69 428 69 428 69 474 c 0,35,36
 69 566 69 566 142.5 625 c 128,-1,37
 216 684 216 684 320 684 c 0,38,39
 443 684 443 684 534.5 617.5 c 128,-1,40
 626 551 626 551 626 446 c 0,41,42
 626 375 626 375 600.5 323 c 128,-1,43
 575 271 575 271 527.5 239 c 128,-1,44
 480 207 480 207 432.5 184.5 c 128,-1,45
 385 162 385 162 321 136 c 128,-1,46
 257 110 257 110 218 85 c 1,47,48
 239 90 239 90 261 90 c 0,49,50
 335 90 335 90 431.5 18 c 128,-1,51
 528 -54 528 -54 574 -54 c 2,52,-1
 608 -54 l 1,53,-1
 608 129 l 2,54,55
 608 145 608 145 619.5 157.5 c 128,-1,56
 631 170 631 170 649 170 c 128,-1,57
 667 170 667 170 678.5 157.5 c 128,-1,58
 690 145 690 145 690 129 c 2,59,-1
 690 -54 l 1,60,-1
 873 -54 l 2,61,62
 891 -54 891 -54 902.5 -66.5 c 128,-1,63
 914 -79 914 -79 914 -95 c 128,-1,64
 914 -111 914 -111 902.5 -123.5 c 128,-1,65
 891 -136 891 -136 873 -136 c 2,66,-1
 690 -136 l 1,67,-1
 690 -279 l 2,68,69
 690 -295 690 -295 678.5 -307.5 c 128,-1,70
 667 -320 667 -320 649 -320 c 128,-1,71
 631 -320 631 -320 619.5 -307.5 c 128,-1,72
 608 -295 608 -295 608 -279 c 2,73,-1
 608 -136 l 1,74,-1
 508 -136 l 2,0,1
EndSplineSet
EndChar

StartChar: uniE203
Encoding: 57859 57859 37
Width: 700
VWidth: 1639
Flags: W
HStem: -136 38<253.055 381.074> 66 82<306.861 433 617.531 817.139> 274 48<197.09 407.263> 420 21G<170.75 210.25> 646 38<242.754 384.937>
VStem: 77 149<-53.5 71> 97 129<495.5 593.672> 433 188<-7.74194 66 148.229 202.371> 433 167<374.481 581.831>
LayerCount: 2
Fore
SplineSet
621 66 m 1,0,1
 611 -24 611 -24 539 -77 c 0,2,3
 457 -136 457 -136 330 -136 c 0,4,5
 228 -136 228 -136 152.5 -85 c 128,-1,6
 77 -34 77 -34 77 49 c 0,7,8
 77 93 77 93 109 125.5 c 128,-1,9
 141 158 141 158 185.5 158 c 128,-1,10
 230 158 230 158 261 126 c 128,-1,11
 292 94 292 94 292 49 c 0,12,13
 292 29 292 29 259 5.5 c 128,-1,14
 226 -18 226 -18 226 -38 c 0,15,16
 226 -69 226 -69 256.5 -83.5 c 128,-1,17
 287 -98 287 -98 330 -98 c 0,18,19
 384 -98 384 -98 408 -43 c 0,20,21
 428 3 428 3 433 66 c 1,22,-1
 336 66 l 2,23,24
 318 66 318 66 306.5 78 c 128,-1,25
 295 90 295 90 295 106.5 c 128,-1,26
 295 123 295 123 306.5 135.5 c 128,-1,27
 318 148 318 148 336 148 c 2,28,-1
 433 148 l 1,29,30
 433 155 433 155 430 202 c 0,31,32
 428 228 428 228 408.5 251 c 128,-1,33
 389 274 389 274 351 274 c 2,34,-1
 220 274 l 2,35,36
 197 274 197 274 197 299 c 0,37,38
 197 322 197 322 220 322 c 2,39,-1
 351 322 l 2,40,41
 392 322 392 322 415 353 c 0,42,43
 425 366 425 366 428 389 c 0,44,45
 433 422 433 422 433 484 c 2,46,-1
 433 497 l 2,47,48
 433 646 433 646 323 646 c 0,49,50
 226 646 226 646 226 592 c 0,51,52
 226 574 226 574 255.5 553.5 c 128,-1,53
 285 533 285 533 285 515 c 0,54,55
 285 476 285 476 257.5 448 c 128,-1,56
 230 420 230 420 190.5 420 c 128,-1,57
 151 420 151 420 124 448 c 128,-1,58
 97 476 97 476 97 515 c 0,59,60
 97 592 97 592 164 638 c 128,-1,61
 231 684 231 684 323 684 c 0,62,63
 444 684 444 684 522 637.5 c 128,-1,64
 600 591 600 591 600 497 c 0,65,66
 600 430 600 430 586 393 c 128,-1,67
 572 356 572 356 554 348 c 128,-1,68
 536 340 536 340 522 329 c 128,-1,69
 508 318 508 318 508 299 c 0,70,71
 508 283 508 283 526 268 c 128,-1,72
 544 253 544 253 566 240 c 0,73,74
 589 227 589 227 605 189 c 0,75,76
 613 171 613 171 618 148 c 1,77,-1
 788 148 l 2,78,79
 806 148 806 148 817.5 135.5 c 128,-1,80
 829 123 829 123 829 106.5 c 128,-1,81
 829 90 829 90 817.5 78 c 128,-1,82
 806 66 806 66 788 66 c 2,83,-1
 621 66 l 1,0,1
EndSplineSet
EndChar

StartChar: uniE204
Encoding: 57860 57860 38
Width: 700
VWidth: 1639
Flags: W
HStem: -136 38<186.02 264.672 576.328 654.98> 69 82<81 325 517 702 784 956.139> 664 20G<241 253.5>
VStem: 325 192<-34.1875 69 151 374.621> 702 82<-142.109 69 151 362.109>
LayerCount: 2
Fore
SplineSet
702 151 m 1,0,-1
 702 334 l 2,1,2
 702 350 702 350 713.5 362.5 c 128,-1,3
 725 375 725 375 743 375 c 128,-1,4
 761 375 761 375 772.5 362.5 c 128,-1,5
 784 350 784 350 784 334 c 2,6,-1
 784 151 l 1,7,-1
 927 151 l 2,8,9
 945 151 945 151 956.5 138.5 c 128,-1,10
 968 126 968 126 968 110 c 128,-1,11
 968 94 968 94 956.5 81.5 c 128,-1,12
 945 69 945 69 927 69 c 2,13,-1
 784 69 l 1,14,-1
 784 -114 l 2,15,16
 784 -130 784 -130 772.5 -142.5 c 128,-1,17
 761 -155 761 -155 743 -155 c 128,-1,18
 725 -155 725 -155 713.5 -142.5 c 128,-1,19
 702 -130 702 -130 702 -114 c 2,20,-1
 702 69 l 1,21,-1
 517 69 l 1,22,-1
 517 56 l 2,23,24
 517 -6 517 -6 550 -52 c 128,-1,25
 583 -98 583 -98 635 -98 c 0,26,27
 655 -98 655 -98 655 -116 c 0,28,29
 655 -136 655 -136 635 -136 c 0,30,31
 599 -136 599 -136 528 -125.5 c 128,-1,32
 457 -115 457 -115 420.5 -115 c 128,-1,33
 384 -115 384 -115 313 -125.5 c 128,-1,34
 242 -136 242 -136 206 -136 c 0,35,36
 186 -136 186 -136 186 -116 c 0,37,38
 186 -98 186 -98 206 -98 c 0,39,40
 258 -98 258 -98 291.5 -52 c 128,-1,41
 325 -6 325 -6 325 56 c 2,42,-1
 325 69 l 1,43,-1
 52 69 l 2,44,45
 26 69 26 69 13.5 81.5 c 128,-1,46
 1 94 1 94 1 107 c 0,47,48
 1 112 1 112 24.5 141.5 c 128,-1,49
 48 171 48 171 82 220 c 128,-1,50
 116 269 116 269 149.5 331.5 c 128,-1,51
 183 394 183 394 206.5 481.5 c 128,-1,52
 230 569 230 569 230 658 c 0,53,54
 230 684 230 684 252 684 c 0,55,56
 255 684 255 684 273 679 c 128,-1,57
 291 674 291 674 319 668.5 c 128,-1,58
 347 663 347 663 373 663 c 0,59,60
 411.75 663 411.75 663 453 674 c 2,61,-1
 498 686 l 1,62,63
 511 686 511 686 519 676 c 0,64,65
 524.88630491 667.170542636 524.88630491 667.170542636 517 658 c 2,66,-1
 81 151 l 1,67,-1
 325 151 l 1,68,-1
 325 331 l 2,69,70
 325 354 325 354 337.5 366.5 c 128,-1,71
 350 379 350 379 371.5 387.5 c 128,-1,72
 393 396 393 396 421 431 c 0,73,74
 447 464 447 464 481 531 c 0,75,76
 486 541 486 541 496 541 c 0,77,78
 517 541 517 541 517 518 c 2,79,-1
 517 151 l 1,80,-1
 702 151 l 1,0,-1
EndSplineSet
EndChar

StartChar: uniE205
Encoding: 57861 57861 39
Width: 700
VWidth: 1639
Flags: MW
HStem: -136 38<235.799 385.302> 195 49<112.098 314.922> 373 47<226.668 390.105> 505 158<167.766 376.516>
VStem: 112 47<350 496.749> 446 190<36.0938 232.759> 641 148<434.579 570.342>
LayerCount: 2
Back
SplineSet
505.5 250 m 0,53,54
 373.082833041 213.886227193 373.082833041 213.886227193 137 195 c 0,55,56
 112 193 112 193 112 220 c 0,57,58
 112 242.021484375 112 242.021484375 137 244 c 0,59,60
 371.562044569 262.567367491 371.562044569 262.567367491 479.5 312 c 0,61,62
 635.558609938 383.47057663 635.558609938 383.47057663 641 520 c 0,24,25
 642.284312867 552.224577385 642.284312867 552.224577385 662.5 571.5 c 0,26,27
 684 592 684 592 715 592 c 128,-1,27
 746 592 746 592 767.5 571 c 128,-1,28
 789 550 789 550 789 520 c 0,29,30
 789 327.318181818 789 327.318181818 505.5 250 c 0,53,54
136 684 m 2,0,1
 184 677 l 2,2,3
 202.947368421 674.236842105 202.947368421 674.236842105 231 671 c 0,4,5
 300 663 300 663 364 663 c 128,-1,6
 428 663 428 663 499 671 c 0,7,8
 527 674 527 674 548 677 c 2,9,-1
 597 684 l 1,10,11
 612 684 612 684 619.5 674 c 0,12,13
 625.776 665.632 625.776 665.632 618 658 c 0,13,14
 462.113207547 505 462.113207547 505 187 505 c 0,15,16
 176 505 176 505 167.5 497 c 128,-1,17
 159 489 159 489 159 477 c 2,18,-1
 159 350 l 1,19,20
 230 420 230 420 331 420 c 0,21,22
 477 420 477 420 556.5 348.5 c 128,-1,23
 636 277 636 277 636 141 c 0,24,25
 636 28 636 28 546 -54 c 128,-1,26
 456 -136 456 -136 331 -136 c 0,27,28
 223 -136 223 -136 143.5 -87 c 128,-1,29
 64 -38 64 -38 64 49 c 0,30,31
 64 93 64 93 96 125.5 c 128,-1,32
 128 158 128 158 172.5 158 c 128,-1,33
 217 158 217 158 248 126 c 128,-1,34
 279 94 279 94 279 49 c 0,35,36
 279 29 279 29 246 5.5 c 128,-1,37
 213 -18 213 -18 213 -38 c 0,38,39
 213 -98 213 -98 331 -98 c 0,40,41
 446 -98 446 -98 446 141 c 0,42,43
 446 372 446 372 331 373 c 0,44,45
 228 373 228 373 187 331 c 128,-1,46
 146 289 146 289 136 289 c 0,47,48
 112 289 112 289 112 314 c 2,49,-1
 112 658 l 2,50,51
 112 669 112 669 119 676.5 c 0,52,53
 127.19804401 685.283618582 127.19804401 685.283618582 136 684 c 2,0,1
EndSplineSet
Fore
SplineSet
136 684 m 2,0,-1
 184 677 l 2,1,2
 203 674 203 674 231 671 c 0,3,4
 300 663 300 663 364 663 c 128,-1,5
 428 663 428 663 499 671 c 0,6,7
 527 674 527 674 548 677 c 2,8,-1
 597 684 l 2,9,10
 612 684 612 684 620 674 c 0,11,12
 626 666 626 666 618 658 c 0,13,14
 462 505 462 505 187 505 c 0,15,16
 176 505 176 505 167.5 497 c 128,-1,17
 159 489 159 489 159 477 c 2,18,-1
 159 350 l 1,19,20
 230 420 230 420 331 420 c 0,21,22
 472 420 472 420 551 354 c 1,23,24
 637 419 637 419 641 520 c 0,25,26
 642 552 642 552 662 572 c 0,27,28
 684 592 684 592 715 592 c 128,-1,29
 746 592 746 592 767.5 571 c 128,-1,30
 789 550 789 550 789 520 c 0,31,32
 789 365 789 365 606 285 c 1,33,34
 636 226 636 226 636 141 c 0,35,36
 636 28 636 28 546 -54 c 128,-1,37
 456 -136 456 -136 331 -136 c 0,38,39
 223 -136 223 -136 143.5 -87 c 128,-1,40
 64 -38 64 -38 64 49 c 0,41,42
 64 93 64 93 96 125.5 c 128,-1,43
 128 158 128 158 172.5 158 c 128,-1,44
 217 158 217 158 248 126 c 128,-1,45
 279 94 279 94 279 49 c 0,46,47
 279 29 279 29 246 5.5 c 128,-1,48
 213 -18 213 -18 213 -38 c 0,49,50
 213 -98 213 -98 331 -98 c 0,51,52
 446 -98 446 -98 446 141 c 0,53,54
 446 194 446 194 440 234 c 1,55,56
 319 209 319 209 137 195 c 0,57,58
 112 193 112 193 112 220 c 0,59,60
 112 242 112 242 137 244 c 0,61,62
 321 259 321 259 427 292 c 1,63,64
 399 372 399 372 331 373 c 0,65,66
 228 373 228 373 187 331 c 128,-1,67
 146 289 146 289 136 289 c 0,68,69
 112 289 112 289 112 314 c 2,70,-1
 112 658 l 2,71,72
 112 668 112 668 119 676 c 0,73,74
 127 684 127 684 136 684 c 2,0,-1
EndSplineSet
Validated: 1
EndChar

StartChar: uniE206
Encoding: 57862 57862 40
Width: 700
VWidth: 1639
Flags: MW
HStem: -136 38<235.799 387.131> 343 47<226.668 391.669>
VStem: 112 47<320 496.749> 446 190<22.7148 246.432>
LayerCount: 2
Back
SplineSet
112.248046875 746.979492188 m 2,5,6
 98.2587890625 758.307617188 98.2587890625 758.307617188 97.1884765625 775.258789062 c 0,7,8
 97.0859375 776.88671875 97.0859375 776.88671875 97.0859375 778.474609375 c 0,0,0
 97.0859375 793.404296875 97.0859375 793.404296875 106.1875 804.64453125 c 0,1,2
 116.255859375 817.079101562 116.255859375 817.079101562 133.059570312 819.555664062 c 0,3,4
 136.075195312 820 136.075195312 820 139 820 c 0,0,0
 152.374023438 820 152.374023438 820 163.852539062 810.705078125 c 2,10,-1
 721.842773438 358.853515625 l 2,19,20
 735.83203125 347.525390625 735.83203125 347.525390625 736.90234375 330.57421875 c 0,21,22
 737.004882812 328.9453125 737.004882812 328.9453125 737.004882812 327.358398438 c 0,0,0
 737.004882812 312.427734375 737.004882812 312.427734375 727.904296875 301.188476562 c 0,1,2
 717.834960938 288.75390625 717.834960938 288.75390625 701.03125 286.276367188 c 0,3,4
 698.016601562 285.83203125 698.016601562 285.83203125 695.091796875 285.83203125 c 0,0,0
 681.717773438 285.83203125 681.717773438 285.83203125 670.23828125 295.126953125 c 2,24,-1
 112.248046875 746.979492188 l 2,5,6
779 -41 m 2,5,6
 761 -41 761 -41 749.5 -28.5 c 128,-1,7
 738 -16 738 -16 738 0 c 128,-1,8
 738 16 738 16 749.5 28.5 c 128,-1,9
 761 41 761 41 779 41 c 2,10,-1
 1497 41 l 2,19,20
 1515 41 1515 41 1526.5 28.5 c 128,-1,21
 1538 16 1538 16 1538 0 c 128,-1,22
 1538 -16 1538 -16 1526.5 -28.5 c 128,-1,23
 1515 -41 1515 -41 1497 -41 c 2,24,-1
 779 -41 l 2,5,6
136 684 m 2,0,1
 184 677 l 2,2,3
 205 674 205 674 231 671 c 0,4,5
 300 663 300 663 364 663 c 128,-1,6
 428 663 428 663 499 671 c 0,7,8
 527 674 527 674 548 677 c 2,9,-1
 597 684 l 1,10,11
 612 684 612 684 619.5 674 c 128,-1,12
 627 664 627 664 618 658 c 0,13,14
 465 505 465 505 187 505 c 0,15,16
 176 505 176 505 167.5 497 c 128,-1,17
 159 489 159 489 159 477 c 2,18,-1
 159 320 l 1,19,20
 230 390 230 390 331 390 c 0,21,22
 477 390 477 390 556.5 324.5 c 128,-1,23
 636 259 636 259 636 126 c 0,24,25
 636 13 636 13 546 -61.5 c 128,-1,26
 456 -136 456 -136 331 -136 c 0,27,28
 223 -136 223 -136 143.5 -87 c 128,-1,29
 64 -38 64 -38 64 49 c 0,30,31
 64 93 64 93 96 125.5 c 128,-1,32
 128 158 128 158 172.5 158 c 128,-1,33
 217 158 217 158 248 126 c 128,-1,34
 279 94 279 94 279 49 c 0,35,36
 279 29 279 29 246 5.5 c 128,-1,37
 213 -18 213 -18 213 -38 c 0,38,39
 213 -98 213 -98 331 -98 c 0,40,41
 446 -98 446 -98 446 126 c 0,42,43
 446 342 446 342 331 343 c 0,44,45
 228 343 228 343 187 301 c 128,-1,46
 146 259 146 259 136 259 c 0,47,48
 111 259 111 259 112 284 c 2,49,-1
 112 658 l 2,50,51
 112 669 112 669 119 676.5 c 128,-1,52
 126 684 126 684 136 684 c 2,0,1
EndSplineSet
Fore
SplineSet
136 684 m 2,0,-1
 184 677 l 2,1,2
 192 676 192 676 202 675 c 1,3,-1
 112 747 l 2,4,5
 98 758 98 758 97 775 c 0,6,7
 97 777 97 777 97 778 c 0,8,9
 97 793 97 793 106 805 c 0,10,11
 116 817 116 817 133 820 c 0,12,13
 136 820 136 820 139 820 c 0,14,15
 152 820 152 820 164 811 c 2,16,-1
 346 663 l 1,17,18
 355 663 355 663 364 663 c 0,19,20
 428 663 428 663 499 671 c 0,21,22
 527 674 527 674 548 677 c 2,23,-1
 597 684 l 2,24,25
 612 684 612 684 619.5 674 c 128,-1,26
 627 664 627 664 618 658 c 0,27,28
 556 596 556 596 474 559 c 1,29,-1
 722 359 l 2,30,31
 736 348 736 348 737 331 c 0,32,33
 737 329 737 329 737 327 c 0,34,35
 737 312 737 312 728 301 c 0,36,37
 718 289 718 289 701 286 c 0,38,39
 698 286 698 286 695 286 c 0,40,41
 682 286 682 286 670 295 c 2,42,-1
 383 528 l 1,43,44
 294 505 294 505 187 505 c 0,45,46
 176 505 176 505 167.5 497 c 128,-1,47
 159 489 159 489 159 477 c 2,48,-1
 159 320 l 1,49,50
 230 390 230 390 331 390 c 0,51,52
 477 390 477 390 556.5 324.5 c 128,-1,53
 636 259 636 259 636 126 c 0,54,55
 636 13 636 13 546 -61.5 c 128,-1,56
 456 -136 456 -136 331 -136 c 0,57,58
 223 -136 223 -136 143.5 -87 c 128,-1,59
 64 -38 64 -38 64 49 c 0,60,61
 64 93 64 93 96 125.5 c 128,-1,62
 128 158 128 158 172.5 158 c 128,-1,63
 217 158 217 158 248 126 c 128,-1,64
 279 94 279 94 279 49 c 0,65,66
 279 29 279 29 246 5.5 c 128,-1,67
 213 -18 213 -18 213 -38 c 0,68,69
 213 -98 213 -98 331 -98 c 0,70,71
 446 -98 446 -98 446 126 c 0,72,73
 446 342 446 342 331 343 c 0,74,75
 228 343 228 343 187 301 c 128,-1,76
 146 259 146 259 136 259 c 0,77,78
 111 259 111 259 112 284 c 2,79,-1
 112 658 l 2,80,81
 112 669 112 669 119 676.5 c 128,-1,82
 126 684 126 684 136 684 c 2,0,-1
EndSplineSet
EndChar

StartChar: uniE207
Encoding: 57863 57863 41
Width: 700
VWidth: 1639
Flags: W
HStem: -136 39<287.966 409.098> 284 38<292.24 408.633> 629 55<422.277 617.531>
VStem: 68 192<42.9758 432.5> 447 179<-9.43585 201.084>
LayerCount: 2
Back
SplineSet
61.1767578125 748.612304688 m 2,5,6
 47.7998046875 760.65625 47.7998046875 760.65625 47.6181640625 777.640625 c 128,-1,7
 47.435546875 794.625 47.435546875 794.625 58.1416015625 806.515625 c 128,-1,8
 68.84765625 818.40625 68.84765625 818.40625 85.7587890625 820 c 128,-1,9
 102.668945312 821.594726562 102.668945312 821.594726562 116.044921875 809.549804688 c 2,10,-1
 686.780273438 295.658203125 l 2,19,20
 700.157226562 283.61328125 700.157226562 283.61328125 700.338867188 266.62890625 c 128,-1,21
 700.521484375 249.64453125 700.521484375 249.64453125 689.815429688 237.754882812 c 128,-1,22
 679.109375 225.864257812 679.109375 225.864257812 662.19921875 224.26953125 c 128,-1,23
 645.288085938 222.67578125 645.288085938 222.67578125 631.912109375 234.719726562 c 2,24,-1
 61.1767578125 748.612304688 l 2,5,6
779 -41 m 2,5,6
 761 -41 761 -41 749.5 -28.5 c 128,-1,7
 738 -16 738 -16 738 0 c 128,-1,8
 738 16 738 16 749.5 28.5 c 128,-1,9
 761 41 761 41 779 41 c 2,10,-1
 1547 41 l 2,19,20
 1565 41 1565 41 1576.5 28.5 c 128,-1,21
 1588 16 1588 16 1588 0 c 128,-1,22
 1588 -16 1588 -16 1576.5 -28.5 c 128,-1,23
 1565 -41 1565 -41 1547 -41 c 2,24,-1
 779 -41 l 2,5,6
350 284 m 128,-1,0
 289 284 289 284 274.5 237 c 128,-1,1
 260 190 260 190 260 94 c 0,2,3
 260 -19 260 -19 274.5 -58 c 128,-1,4
 289 -97 289 -97 350 -97 c 128,-1,5
 411 -97 411 -97 429 -50 c 128,-1,6
 447 -3 447 -3 447 93.5 c 128,-1,7
 447 190 447 190 429 237 c 128,-1,8
 411 284 411 284 350 284 c 128,-1,0
397.5 597 m 152,-1,-1
 335 565 335 565 288 484 c 1,0,1
 257 412 257 412 257 300 c 1,2,3
 309 321 309 321 347 322 c 0,4,5
 475 322 475 322 552 264 c 0,6,7
 626 208 626 208 626 94 c 0,8,9
 626 -16 626 -16 550 -77 c 0,10,11
 475 -136 475 -136 347 -136 c 0,12,13
 216 -136 216 -136 142 -14.5 c 128,-1,14
 68 107 68 107 68 274 c 0,15,16
 68 455 68 455 153 546 c 0,17,18
 216 613 216 613 294 648 c 0,19,20
 374 684 374 684 588 684 c 0,21,22
 619 684 619 684 618 656 c 0,23,24
 617 629 617 629 588 629 c 0,24,25
 460 629 460 629 397.5 597 c 152,-1,-1
EndSplineSet
Fore
SplineSet
350 284 m 128,-1,1
 289 284 289 284 274.5 237 c 128,-1,2
 260 190 260 190 260 94 c 0,3,4
 260 -19 260 -19 274.5 -58 c 128,-1,5
 289 -97 289 -97 350 -97 c 128,-1,6
 411 -97 411 -97 429 -50 c 128,-1,7
 447 -3 447 -3 447 93.5 c 128,-1,8
 447 190 447 190 429 237 c 128,-1,0
 411 284 411 284 350 284 c 128,-1,1
61 749 m 2,9,10
 48 761 48 761 48 778 c 128,-1,11
 48 795 48 795 58.5 806.5 c 128,-1,12
 69 818 69 818 86 820 c 0,13,14
 88 820 88 820 90 820 c 0,15,16
 105 820 105 820 116 810 c 2,17,-1
 295 648 l 1,18,19
 375 684 375 684 588 684 c 0,20,21
 618 684 618 684 618 658 c 0,22,23
 618 657 618 657 618 656 c 0,24,25
 617 629 617 629 588 629 c 0,26,27
 460 629 460 629 398 597 c 0,28,29
 384 590 384 590 371 580 c 1,30,-1
 687 296 l 2,31,32
 700 284 700 284 700 267 c 0,33,-1
 700 266 l 0,34,35
 700 249 700 249 690 238 c 0,36,37
 679 226 679 226 662 224 c 0,38,39
 660 224 660 224 658 224 c 0,40,41
 643 224 643 224 632 235 c 2,42,-1
 313 522 l 1,43,44
 300 505 300 505 288 484 c 0,45,46
 257 412 257 412 257 300 c 1,47,48
 309 321 309 321 347 322 c 0,49,50
 475 322 475 322 552 264 c 0,51,52
 626 208 626 208 626 94 c 0,53,54
 626 -16 626 -16 550 -77 c 0,55,56
 475 -136 475 -136 347 -136 c 0,57,58
 216 -136 216 -136 142 -14.5 c 128,-1,59
 68 107 68 107 68 274 c 0,60,61
 68 455 68 455 153 546 c 0,62,63
 185 580 185 580 220 605 c 1,64,-1
 61 749 l 2,9,10
EndSplineSet
EndChar

StartChar: i
Encoding: 105 105 48
Width: 333
VWidth: 1000
Flags: MW
HStem: -136 19<20 78.2913 260.684 313> 584 126<115.564 203.92>
VStem: 97 126<603.08 690.92> 118 104<-93.941 334.978>
LayerCount: 2
Back
SplineSet
190 734 m 128,-1,1
 190 769 190 769 215 794 c 128,-1,2
 240 819 240 819 275 819 c 128,-1,3
 310 819 310 819 335 794 c 128,-1,4
 360 769 360 769 360 734 c 128,-1,5
 360 699 360 699 335 674 c 128,-1,6
 310 649 310 649 275 649 c 128,-1,7
 240 649 240 649 215 674 c 128,-1,0
 190 699 190 699 190 734 c 128,-1,1
360 56 m 2,8,9
 360 -6 360 -6 403.5 -52 c 128,-1,10
 447 -98 447 -98 500 -98 c 0,11,12
 520 -98 520 -98 520 -116 c 0,13,14
 520 -136 520 -136 500 -136 c 0,15,16
 464 -136 464 -136 392.5 -125.5 c 128,-1,17
 321 -115 321 -115 285 -115 c 128,-1,18
 249 -115 249 -115 177.5 -125.5 c 128,-1,19
 106 -136 106 -136 70 -136 c 0,20,21
 50 -136 50 -136 50 -116 c 0,22,23
 50 -98 50 -98 70 -98 c 0,24,25
 129 -98 129 -98 169.5 -45 c 128,-1,26
 210 8 210 8 210 56 c 2,27,-1
 210 192 l 2,28,29
 210 274 210 274 178 302 c 1,30,31
 144 330 144 330 71 330 c 0,32,33
 50 330 50 330 50 350 c 0,34,35
 50 374 50 374 71 384 c 1,36,-1
 325 530 l 2,37,38
 333 534 333 534 343 534 c 0,39,40
 360 534 360 534 360 514 c 2,41,-1
 360 56 l 2,8,9
EndSplineSet
Fore
SplineSet
77 352 m 0,0,1
 62 352 62 352 25 347 c 1,2,-1
 25 366 l 1,3,-1
 217 434 l 1,4,-1
 222 430 l 1,5,-1
 222 -10 l 2,6,7
 222 -77 222 -77 237.5 -94.5 c 128,-1,8
 253 -112 253 -112 313 -117 c 1,9,-1
 313 -136 l 1,10,-1
 20 -136 l 1,11,-1
 20 -117 l 1,12,13
 84 -113 84 -113 101 -95 c 128,-1,14
 118 -77 118 -77 118 -10 c 2,15,-1
 118 278 l 2,16,17
 118 319 118 319 108.5 335.5 c 128,-1,18
 99 352 99 352 77 352 c 0,0,1
159 710 m 0,19,20
 186 710 186 710 204.5 691.5 c 128,-1,21
 223 673 223 673 223 647 c 0,22,23
 223 620 223 620 204.5 602 c 128,-1,24
 186 584 186 584 159 584 c 0,25,26
 133 584 133 584 115 602.5 c 128,-1,27
 97 621 97 621 97 647 c 128,-1,28
 97 673 97 673 115.5 691.5 c 128,-1,29
 134 710 134 710 159 710 c 0,19,20
EndSplineSet
Validated: 1
EndChar

StartChar: bracketleft
Encoding: 91 91 49
Width: 333
VWidth: 1000
Flags: MW
HStem: -169 25<177.028 299> 657 25<174.831 299>
VStem: 88 76<-138.401 646.169>
LayerCount: 2
Fore
SplineSet
299 -144 m 1,0,-1
 299 -169 l 1,1,-1
 88 -169 l 1,2,-1
 88 682 l 1,3,-1
 299 682 l 1,4,-1
 299 657 l 1,5,-1
 209 657 l 2,6,7
 185 657 185 657 174.5 646.5 c 128,-1,8
 164 636 164 636 164 613 c 2,9,-1
 164 -92 l 2,10,11
 164 -144 164 -144 213 -144 c 2,12,-1
 299 -144 l 1,0,-1
EndSplineSet
Validated: 1
EndChar

StartChar: bracketright
Encoding: 93 93 50
Width: 333
VWidth: 1000
Flags: MW
HStem: -169 25<34 155.972> 657 25<34 158.169>
VStem: 169 76<-138.401 646.169>
LayerCount: 2
Fore
SplineSet
34 -144 m 1,0,-1
 120 -144 l 2,1,2
 169 -144 169 -144 169 -92 c 2,3,-1
 169 613 l 2,4,5
 169 636 169 636 158.5 646.5 c 128,-1,6
 148 657 148 657 124 657 c 2,7,-1
 34 657 l 1,8,-1
 34 682 l 1,9,-1
 245 682 l 1,10,-1
 245 -169 l 1,11,-1
 34 -169 l 1,12,-1
 34 -144 l 1,0,-1
EndSplineSet
Validated: 1
EndChar

StartChar: v
Encoding: 118 118 51
Width: 615
VWidth: 1000
Flags: MW
HStem: 403 18<24 58.5581 223.572 266 419 455.462 560.279 591>
LayerCount: 2
Back
SplineSet
492 -136 m 17,0,1
 418 -136 l 9,2,-1
 248 326 l 2,3,4
 193 476 193 476 151 476 c 0,5,6
 131 476 131 476 131 494 c 0,7,8
 131 514 131 514 151 514 c 0,9,10
 187 514 187 514 227.5 506 c 128,-1,11
 268 498 268 498 304 498 c 128,-1,12
 340 498 340 498 381.5 506 c 128,-1,13
 423 514 423 514 459 514 c 0,14,15
 479 514 479 514 479 494 c 0,16,17
 479 476 479 476 459 476 c 0,18,19
 396 476 396 476 396 390 c 0,20,21
 396 360 396 360 410 322 c 2,22,-1
 498 83 l 25,23,-1
 586 322 l 2,24,25
 604 371 604 371 604 411 c 0,26,27
 604 476 604 476 526 476 c 0,28,29
 506 476 506 476 506 494 c 0,30,31
 506 514 506 514 526 514 c 0,32,33
 562 514 562 514 584.5 506 c 128,-1,34
 607 498 607 498 643 498 c 128,-1,35
 679 498 679 498 701 506 c 128,-1,36
 723 514 723 514 759 514 c 0,37,38
 779 514 779 514 779 494 c 0,39,40
 779 478 779 478 759 476 c 0,41,42
 713 470 713 470 659 322 c 2,43,-1
 492 -136 l 17,0,1
EndSplineSet
Fore
SplineSet
591 421 m 1,0,-1
 591 403 l 1,1,2
 563 401 563 401 549 384.5 c 128,-1,3
 535 368 535 368 510 306 c 2,4,-1
 352 -91 l 2,5,6
 327 -153 327 -153 317 -153 c 0,7,8
 309 -153 309 -153 285 -95 c 2,9,-1
 136 260 l 2,10,11
 95 358 95 358 76 380 c 0,12,13
 58 402 58 402 24 403 c 1,14,-1
 24 421 l 1,15,-1
 266 421 l 1,16,-1
 266 403 l 1,17,18
 234 401 234 401 221.5 393 c 128,-1,19
 209 385 209 385 209 368 c 0,20,21
 209 348 209 348 220 322 c 2,22,-1
 347 5 l 1,23,-1
 469 326 l 2,24,25
 476 345 476 345 477 363 c 0,26,27
 477 398 477 398 419 403 c 1,28,-1
 419 421 l 1,29,-1
 591 421 l 1,0,-1
EndSplineSet
Validated: 1
EndChar

StartChar: X
Encoding: 88 88 64
Width: 884
VWidth: 1000
Flags: MW
HStem: -136 24<12 65.7407 228.283 301 504 584.5 817.532 872> 660 24<27 88.998 320.682 401 567 635.429 795.54 862>
LayerCount: 2
Fore
SplineSet
862 684 m 1,0,-1
 862 660 l 1,1,2
 801 656 801 656 768.5 636 c 128,-1,3
 736 616 736 616 678 544 c 2,4,-1
 497 319 l 1,5,-1
 735 -21 l 2,6,7
 772 -74 772 -74 796.5 -90 c 128,-1,8
 821 -106 821 -106 872 -112 c 1,9,-1
 872 -136 l 1,10,-1
 504 -136 l 1,11,-1
 504 -112 l 1,12,13
 534 -110 534 -110 538 -110 c 0,14,15
 600 -109 600 -109 600 -74 c 0,16,17
 600 -47 600 -47 536 47 c 2,18,-1
 419 221 l 1,19,-1
 271 37 l 2,20,21
 207 -44 207 -44 207 -69 c 0,22,23
 207 -90 207 -90 227 -99.5 c 128,-1,24
 247 -109 247 -109 301 -112 c 1,25,-1
 301 -136 l 1,26,-1
 12 -136 l 1,27,-1
 12 -112 l 1,28,29
 60 -108 60 -108 86.5 -88.5 c 128,-1,30
 113 -69 113 -69 192 29 c 2,31,-1
 386 268 l 1,32,-1
 251 466 l 2,33,34
 164 594 164 594 126.5 626 c 128,-1,35
 89 658 89 658 27 660 c 1,36,-1
 27 684 l 1,37,-1
 401 684 l 1,38,-1
 401 660 l 1,39,-1
 367 659 l 2,40,41
 308 658 308 658 307 623 c 0,42,43
 307 583 307 583 412 438 c 2,44,-1
 465 364 l 1,45,-1
 604 535 l 2,46,47
 654 597 654 597 654 621 c 0,48,49
 654 642 654 642 636 650 c 128,-1,50
 618 658 618 658 567 660 c 1,51,-1
 567 684 l 1,52,-1
 862 684 l 1,0,-1
EndSplineSet
Validated: 1
EndChar

StartChar: x
Encoding: 120 120 65
Width: 614
VWidth: 1000
Flags: MW
HStem: -136 19<21 62.3998 156.908 201 344 384.198 553.935 593> 403 18<30 77.5625 243.882 286 341 378.504 492.406 536>
LayerCount: 2
Fore
SplineSet
307 241 m 1,0,1
 321 262 321 262 339.5 287 c 128,-1,2
 358 312 358 312 367.5 325 c 128,-1,3
 377 338 377 338 383.5 352 c 128,-1,4
 390 366 390 366 390 376 c 0,5,6
 390 400 390 400 341 403 c 1,7,-1
 341 421 l 1,8,-1
 536 421 l 1,9,-1
 536 403 l 1,10,11
 473 401 473 401 436 348 c 2,12,-1
 333 200 l 1,13,-1
 492 -43 l 1,14,15
 522 -85 522 -85 543.5 -101 c 128,-1,16
 565 -117 565 -117 593 -117 c 1,17,-1
 593 -136 l 1,18,-1
 344 -136 l 1,19,-1
 344 -117 l 1,20,21
 375 -115 375 -115 384.5 -109.5 c 128,-1,22
 394 -104 394 -104 394 -88 c 0,23,24
 394 -77 394 -77 386 -65 c 2,25,-1
 274 108 l 1,26,-1
 176 -44 l 2,27,28
 151 -82 151 -82 151 -95 c 0,29,30
 151 -117 151 -117 201 -117 c 1,31,-1
 201 -136 l 1,32,-1
 21 -136 l 1,33,-1
 21 -117 l 1,34,35
 52 -115 52 -115 68.5 -104 c 128,-1,36
 85 -93 85 -93 111 -54 c 2,37,-1
 253 150 l 1,38,-1
 136 329 l 2,39,40
 108 372 108 372 88 387.5 c 128,-1,41
 68 403 68 403 41 403 c 2,42,-1
 30 403 l 1,43,-1
 30 421 l 1,44,-1
 286 421 l 1,45,-1
 286 403 l 1,46,47
 233 402 233 402 233 376 c 0,48,49
 233 351 233 351 290 265 c 1,50,-1
 307 241 l 1,0,1
EndSplineSet
Validated: 1
EndChar

StartChar: uni2168
Encoding: 8552 8552 66
Width: 884
VWidth: 1000
Flags: MW
HStem: -136 24<22 103.508 302.25 437.062 593.633 667 870 952.377 1180.4 1238> 660 24<22 101.16 309.288 454.84 688.5 767 933 1001.43 1164.24 1228>
VStem: 142 127<-91.1976 637.106>
LayerCount: 2
Fore
SplineSet
22 -136 m 1,0,-1
 22 -112 l 1,1,2
 100 -110 100 -110 121 -90 c 128,-1,3
 142 -70 142 -70 142 -1 c 2,4,-1
 142 549 l 2,5,6
 142 617 142 617 122 636.5 c 128,-1,7
 102 656 102 656 22 660 c 1,8,-1
 22 684 l 1,9,-1
 767 683 l 1,10,-1
 767 659 l 1,11,-1
 733 658 l 2,12,13
 673 656 673 656 673 622 c 0,14,15
 673 585 673 585 778 437 c 2,16,-1
 831 363 l 1,17,-1
 970 534 l 2,18,19
 1020 596 1020 596 1020 620 c 0,20,21
 1020 641 1020 641 1002 649 c 128,-1,22
 984 657 984 657 933 659 c 1,23,-1
 933 683 l 1,24,-1
 1228 683 l 1,25,-1
 1228 659 l 1,26,27
 1167 655 1167 655 1134.5 635 c 128,-1,28
 1102 615 1102 615 1044 543 c 2,29,-1
 863 318 l 1,30,-1
 1101 -22 l 2,31,32
 1138 -75 1138 -75 1162.5 -91 c 128,-1,33
 1187 -107 1187 -107 1238 -113 c 1,34,-1
 1238 -136 l 1,35,-1
 870 -136 l 1,36,-1
 870 -113 l 1,37,38
 900 -111 900 -111 904 -111 c 0,39,40
 966 -110 966 -110 966 -75 c 0,41,42
 966 -49 966 -49 902 46 c 2,43,-1
 785 220 l 1,44,-1
 637 36 l 2,45,46
 573 -44 573 -44 573 -70 c 0,47,48
 573 -91 573 -91 593 -100.5 c 128,-1,49
 613 -110 613 -110 667 -113 c 1,50,-1
 667 -136 l 1,51,-1
 22 -136 l 1,0,-1
381 -113 m 3,52,53
 424 -114 424 -114 452 -90 c 0,54,55
 485 -62 485 -62 558 28 c 2,56,-1
 752 267 l 1,57,-1
 617 465 l 2,58,59
 535 585 535 585 492 625 c 0,60,61
 455 659 455 659 393 659 c 3,62,63
 315 659 315 659 292 638 c 128,-1,64
 269 617 269 617 269 549 c 2,65,-1
 269 -1 l 2,66,67
 269 -68 269 -68 289 -90.5 c 128,-1,68
 309 -113 309 -113 381 -113 c 3,52,53
EndSplineSet
Validated: 1
EndChar

StartChar: uni216A
Encoding: 8554 8554 68
Width: 1251
VWidth: 1000
Flags: MW
HStem: -136 24<12 65.7407 228.283 301 504 584.5 811.982 944.797 1147.66 1229> 660 20<27 82.875 322.613 401 567 635.429 794.789 934.082 1157.53 1229>
VStem: 981 126<-89.1108 634.565>
LayerCount: 2
Fore
SplineSet
870 -112 m 0,0,1
 938 -112 938 -112 959.5 -90.5 c 128,-1,2
 981 -69 981 -69 981 -1 c 2,3,-1
 981 549 l 2,4,5
 981 616 981 616 955.5 638 c 128,-1,6
 930 660 930 660 861 660 c 0,7,8
 804 660 804 660 770 638.5 c 128,-1,9
 736 617 736 617 678 544 c 2,10,-1
 497 319 l 1,11,-1
 735 -21 l 2,12,13
 775 -76 775 -76 801.5 -94 c 128,-1,14
 828 -112 828 -112 870 -112 c 0,0,1
1229 -136 m 1,15,-1
 504 -136 l 1,16,-1
 504 -112 l 1,17,18
 534 -110 534 -110 538 -110 c 0,19,20
 600 -109 600 -109 600 -74 c 0,21,22
 600 -47 600 -47 536 47 c 2,23,-1
 419 221 l 1,24,-1
 271 37 l 2,25,26
 207 -44 207 -44 207 -69 c 0,27,28
 207 -90 207 -90 227 -99.5 c 128,-1,29
 247 -109 247 -109 301 -112 c 1,30,-1
 301 -136 l 1,31,-1
 12 -136 l 1,32,-1
 12 -112 l 1,33,34
 60 -108 60 -108 86.5 -88.5 c 128,-1,35
 113 -69 113 -69 192 29 c 2,36,-1
 386 268 l 1,37,-1
 251 466 l 2,38,39
 164 594 164 594 126.5 626 c 128,-1,40
 89 658 89 658 27 660 c 1,41,-1
 27 680 l 1,42,-1
 401 680 l 1,43,-1
 401 660 l 1,44,45
 396 660 396 660 383 660 c 128,-1,46
 370 660 370 660 364 659.5 c 128,-1,47
 358 659 358 659 347.5 658 c 128,-1,48
 337 657 337 657 331.5 654.5 c 128,-1,49
 326 652 326 652 319 648 c 128,-1,50
 312 644 312 644 309.5 638 c 128,-1,51
 307 632 307 632 307 623 c 0,52,53
 307 583 307 583 412 438 c 2,54,-1
 465 364 l 1,55,-1
 604 535 l 2,56,57
 654 597 654 597 654 621 c 0,58,59
 654 642 654 642 636 650 c 128,-1,60
 618 658 618 658 567 660 c 1,61,-1
 567 684 l 1,62,-1
 1229 684 l 1,63,-1
 1229 660 l 1,64,65
 1151 656 1151 656 1129 636.5 c 128,-1,66
 1107 617 1107 617 1107 549 c 2,67,-1
 1107 -1 l 2,68,69
 1107 -69 1107 -69 1129.5 -89.5 c 128,-1,70
 1152 -110 1152 -110 1229 -112 c 1,71,-1
 1229 -136 l 1,15,-1
EndSplineSet
Validated: 1
EndChar

StartChar: uni216B
Encoding: 8555 8555 69
Width: 1621
VWidth: 1000
Flags: MW
HStem: -136 24<12 65.7407 228.283 301 504 584.5 811.982 944.137 1147.94 1312.62 1515.66 1597> 660 24<27 88.998 319.001 401 567 635.429 788.719 941.523 1147.94 1311.31 1518.74 1597>
VStem: 981 126<-88.3822 636.382> 1349 126<-88.9258 636.496>
LayerCount: 2
Fore
SplineSet
1229 -112 m 0,0,1
 1305 -112 1305 -112 1327 -91 c 128,-1,2
 1349 -70 1349 -70 1349 -1 c 2,3,-1
 1349 549 l 2,4,5
 1349 618 1349 618 1326 639 c 128,-1,6
 1303 660 1303 660 1229 660 c 0,7,8
 1156 660 1156 660 1131.5 638.5 c 128,-1,9
 1107 617 1107 617 1107 549 c 2,10,-1
 1107 -1 l 2,11,12
 1107 -69 1107 -69 1131.5 -90.5 c 128,-1,13
 1156 -112 1156 -112 1229 -112 c 0,0,1
870 -112 m 0,14,15
 937 -112 937 -112 959 -90.5 c 128,-1,16
 981 -69 981 -69 981 -1 c 2,17,-1
 981 549 l 2,18,19
 981 617 981 617 957.5 638.5 c 128,-1,20
 934 660 934 660 861 660 c 0,21,22
 804 660 804 660 770.5 639 c 128,-1,23
 737 618 737 618 678 544 c 2,24,-1
 497 319 l 1,25,-1
 735 -21 l 2,26,27
 775 -76 775 -76 801.5 -94 c 128,-1,28
 828 -112 828 -112 870 -112 c 0,14,15
1597 -136 m 1,29,-1
 504 -136 l 1,30,-1
 504 -112 l 1,31,32
 534 -110 534 -110 538 -110 c 0,33,34
 600 -109 600 -109 600 -74 c 0,35,36
 600 -47 600 -47 536 47 c 2,37,-1
 419 221 l 1,38,-1
 271 37 l 2,39,40
 207 -44 207 -44 207 -69 c 0,41,42
 207 -90 207 -90 227 -99.5 c 128,-1,43
 247 -109 247 -109 301 -112 c 1,44,-1
 301 -136 l 1,45,-1
 12 -136 l 1,46,-1
 12 -112 l 1,47,48
 60 -108 60 -108 86.5 -88.5 c 128,-1,49
 113 -69 113 -69 192 29 c 2,50,-1
 386 268 l 1,51,-1
 251 466 l 2,52,53
 164 594 164 594 126.5 626 c 128,-1,54
 89 658 89 658 27 660 c 1,55,-1
 27 684 l 1,56,-1
 401 684 l 1,57,-1
 401 660 l 1,58,59
 396 660 396 660 383 660 c 128,-1,60
 370 660 370 660 364 659.5 c 128,-1,61
 358 659 358 659 347.5 658 c 128,-1,62
 337 657 337 657 331.5 654.5 c 128,-1,63
 326 652 326 652 319 648 c 128,-1,64
 312 644 312 644 309.5 638 c 128,-1,65
 307 632 307 632 307 623 c 0,66,67
 307 583 307 583 412 438 c 2,68,-1
 465 364 l 1,69,-1
 604 535 l 2,70,71
 654 597 654 597 654 621 c 0,72,73
 654 642 654 642 636 650 c 128,-1,74
 618 658 618 658 567 660 c 1,75,-1
 567 684 l 1,76,-1
 1597 684 l 1,77,-1
 1597 660 l 1,78,79
 1519 656 1519 656 1497 636.5 c 128,-1,80
 1475 617 1475 617 1475 549 c 2,81,-1
 1475 -1 l 2,82,83
 1475 -69 1475 -69 1497.5 -89.5 c 128,-1,84
 1520 -110 1520 -110 1597 -112 c 1,85,-1
 1597 -136 l 1,29,-1
EndSplineSet
Validated: 1
EndChar

StartChar: uniE208
Encoding: 57864 57864 70
Width: 700
VWidth: 1639
Flags: W
HStem: 664 20G<76.5 100.5 225.5 276.5 625 633>
VStem: 64 48<274.098 506.602 622.188 683.902>
LayerCount: 2
Back
SplineSet
193.779296875 160.956054688 m 2,5,6
 187.036654168 144.267406891 187.036654168 144.267406891 171.138671875 138.287109375 c 0,7,8
 163.19921875 135.30078125 163.19921875 135.30078125 155.515625 135.30078125 c 128,-1,0
 147.83203125 135.30078125 147.83203125 135.30078125 140.40625 138.30078125 c 0,1,2
 125.571289062 144.294921875 125.571289062 144.294921875 118.2890625 159.639648438 c 0,3,4
 114.508789062 167.607421875 114.508789062 167.607421875 114.508789062 175.9375 c 0,0,0
 114.508789062 183.651539221 114.508789062 183.651539221 117.75 191.673828125 c 2,10,-1
 361.244140625 794.34375 l 2,19,20
 367.987073588 811.033116207 367.987073588 811.033116207 383.885742188 817.012695312 c 0,21,22
 391.825195312 820 391.825195312 820 399.5 820 c 128,-1,0
 407.192382812 820 407.192382812 820 414.618164062 816.999023438 c 0,1,2
 429.453125 811.005859375 429.453125 811.005859375 436.734375 795.66015625 c 0,3,4
 440.515625 787.693359375 440.515625 787.693359375 440.515625 779.36328125 c 0,0,0
 440.515625 771.650682546 440.515625 771.650682546 437.2734375 763.625976562 c 2,24,-1
 193.779296875 160.956054688 l 2,5,6
217.024414062 224.678710938 m 1024,7,8
779 -41 m 2,5,6
 761 -41 761 -41 749.5 -28.5 c 128,-1,7
 738 -16 738 -16 738 0 c 128,-1,8
 738 16 738 16 749.5 28.5 c 128,-1,9
 761 41 761 41 779 41 c 2,10,-1
 1429 41 l 2,19,20
 1447 41 1447 41 1458.5 28.5 c 128,-1,21
 1470 16 1470 16 1470 0 c 128,-1,22
 1470 -16 1470 -16 1458.5 -28.5 c 128,-1,23
 1447 -41 1447 -41 1429 -41 c 2,24,-1
 779 -41 l 2,5,6
131 610 m 256,0,1
 134 610 134 610 144 623 c 0,2,3
 187 684 187 684 264 684 c 0,4,5
 326 684 326 684 381 638 c 128,-1,6
 436 592 436 592 472 592 c 0,7,8
 511 592 511 592 546 615 c 128,-1,9
 581 638 581 638 601.5 661 c 128,-1,10
 622 684 622 684 628 684 c 0,11,12
 638 684 638 684 646 677.5 c 128,-1,13
 654 671 654 671 654 661 c 0,14,15
 654 654 654 654 613 592 c 128,-1,16
 572 530 572 530 522 448.5 c 128,-1,17
 472 367 472 367 431 245 c 128,-1,18
 390 123 390 123 390 12 c 0,19,20
 390 -31 390 -31 399 -87 c 0,21,22
 406 -130 406 -130 399 -136 c 0,23,24
 394 -141 394 -141 382 -141 c 0,25,26
 377 -141 377 -141 335.5 -128 c 128,-1,27
 294 -115 294 -115 256 -115 c 0,28,29
 222 -115 222 -115 177.5 -128 c 128,-1,30
 133 -141 133 -141 128 -141 c 0,31,32
 117 -141 117 -141 110 -132 c 128,-1,33
 103 -123 103 -123 108 -113 c 0,34,35
 167 28 167 28 251.5 161.5 c 128,-1,36
 336 295 336 295 463 469 c 1,37,38
 415 443 415 443 366 443 c 0,39,40
 314 443 314 443 261 489.5 c 128,-1,41
 208 536 208 536 174 536 c 0,42,43
 149 536 149 536 130.5 507.5 c 128,-1,44
 112 479 112 479 112 422 c 2,45,-1
 112 299 l 2,46,47
 112 274 112 274 89 274 c 0,48,49
 64 274 64 274 64 299 c 2,50,-1
 64 659 l 2,51,52
 64 684 64 684 89 684 c 0,53,54
 112 684 112 684 112 659 c 2,55,-1
 112 636 l 2,56,57
 112 628 112 628 116 622 c 0,58,59
 128 610 128 610 131 610 c 256,0,1
EndSplineSet
Fore
SplineSet
131 610 m 128,-1,1
 134 610 134 610 144 623 c 0,2,3
 187 684 187 684 264 684 c 0,4,5
 289 684 289 684 314 676 c 1,6,-1
 361 794 l 2,7,8
 368 811 368 811 384 817 c 0,9,10
 392 820 392 820 399.5 820 c 128,-1,11
 407 820 407 820 415 817 c 0,12,13
 430 811 430 811 437 796 c 0,14,15
 441 788 441 788 441 779 c 0,16,17
 441 771 441 771 437 764 c 2,18,-1
 385 635 l 1,19,20
 437 592 437 592 472 592 c 0,21,22
 511 592 511 592 546 615 c 128,-1,23
 581 638 581 638 601.5 661 c 128,-1,24
 622 684 622 684 628 684 c 0,25,26
 638 684 638 684 646 677.5 c 128,-1,27
 654 671 654 671 654 661 c 0,28,29
 654 654 654 654 613 592 c 128,-1,30
 572 530 572 530 522 448.5 c 128,-1,31
 472 367 472 367 431 245 c 128,-1,32
 390 123 390 123 390 12 c 0,33,34
 390 -31 390 -31 399 -87 c 0,35,36
 406 -130 406 -130 399 -136 c 0,37,38
 394 -141 394 -141 382 -141 c 0,39,40
 377 -141 377 -141 335.5 -128 c 128,-1,41
 294 -115 294 -115 256 -115 c 0,42,43
 222 -115 222 -115 177.5 -128 c 128,-1,44
 133 -141 133 -141 128 -141 c 0,45,46
 117 -141 117 -141 110 -132 c 128,-1,47
 103 -123 103 -123 108 -113 c 0,48,49
 167 28 167 28 251.5 161.5 c 128,-1,50
 336 295 336 295 463 469 c 1,51,52
 415 443 415 443 366 443 c 0,53,54
 339 443 339 443 313 455 c 1,55,-1
 194 161 l 2,56,57
 187 144 187 144 171 138 c 0,58,59
 163 135 163 135 155.5 135 c 128,-1,60
 148 135 148 135 140 138 c 0,61,62
 125 144 125 144 118 160 c 0,63,64
 114 168 114 168 115 176 c 0,65,66
 115 184 115 184 118 192 c 2,67,-1
 244 504 l 1,68,69
 202 536 202 536 174 536 c 0,70,71
 149 536 149 536 130.5 507.5 c 128,-1,72
 112 479 112 479 112 422 c 2,73,-1
 112 299 l 2,74,75
 112 274 112 274 89 274 c 0,76,77
 64 274 64 274 64 299 c 2,78,-1
 64 659 l 2,79,80
 64 684 64 684 89 684 c 0,81,82
 112 684 112 684 112 659 c 2,83,-1
 112 636 l 2,84,85
 112 628 112 628 116 622 c 0,86,0
 128 610 128 610 131 610 c 128,-1,1
EndSplineSet
EndChar

StartChar: uniE20A
Encoding: 57866 57866 73
Width: 700
VWidth: 1639
Flags: W
HStem: -136 55<82.4688 277.723> 226 38<291.367 407.76> 645 39<290.902 412.034>
VStem: 74 179<346.916 557.436> 440 192<115.5 505.024>
LayerCount: 2
Back
SplineSet
638.58203125 -200.612304688 m 2,5,6
 651.958984375 -212.65625 651.958984375 -212.65625 652.140625 -229.640625 c 128,-1,7
 652.323242188 -246.625 652.323242188 -246.625 641.6171875 -258.515625 c 128,-1,8
 630.911132812 -270.40625 630.911132812 -270.40625 614 -272 c 128,-1,9
 597.08984375 -273.594726562 597.08984375 -273.594726562 583.713867188 -261.549804688 c 2,10,-1
 12.978515625 252.341796875 l 2,19,20
 -0.3984375 264.38671875 -0.3984375 264.38671875 -0.580078125 281.37109375 c 128,-1,21
 -0.7626953125 298.35546875 -0.7626953125 298.35546875 9.943359375 310.245117188 c 128,-1,22
 20.6494140625 322.135742188 20.6494140625 322.135742188 37.5595703125 323.73046875 c 128,-1,23
 54.470703125 325.32421875 54.470703125 325.32421875 67.8466796875 313.280273438 c 2,24,-1
 638.58203125 -200.612304688 l 2,5,6
349.758789062 264 m 128,-1,0
 410.758789062 264 410.758789062 264 425.258789062 311 c 128,-1,1
 439.758789062 358 439.758789062 358 439.758789062 454 c 0,2,3
 439.758789062 567 439.758789062 567 425.258789062 606 c 128,-1,4
 410.758789062 645 410.758789062 645 349.758789062 645 c 128,-1,5
 288.758789062 645 288.758789062 645 270.758789062 598 c 128,-1,6
 252.758789062 551 252.758789062 551 252.758789062 454.5 c 128,-1,7
 252.758789062 358 252.758789062 358 270.758789062 311 c 128,-1,8
 288.758789062 264 288.758789062 264 349.758789062 264 c 128,-1,0
302.258789062 -49 m 152,-1,-1
 364.758789062 -17 364.758789062 -17 411.758789062 64 c 1,0,1
 442.758789062 136 442.758789062 136 442.758789062 248 c 1,2,3
 390.758789062 227 390.758789062 227 352.758789062 226 c 0,4,5
 224.758789062 226 224.758789062 226 147.758789062 284 c 0,6,7
 73.7587890625 340 73.7587890625 340 73.7587890625 454 c 0,8,9
 73.7587890625 564 73.7587890625 564 149.758789062 625 c 0,10,11
 224.758789062 684 224.758789062 684 352.758789062 684 c 0,12,13
 483.758789062 684 483.758789062 684 557.758789062 562.5 c 128,-1,14
 631.758789062 441 631.758789062 441 631.758789062 274 c 0,15,16
 631.758789062 93 631.758789062 93 546.758789062 2 c 0,17,18
 483.758789062 -65 483.758789062 -65 405.758789062 -100 c 0,19,20
 325.758789062 -136 325.758789062 -136 111.758789062 -136 c 0,21,22
 80.7587890625 -136 80.7587890625 -136 81.7587890625 -108 c 0,23,24
 82.7587890625 -81 82.7587890625 -81 111.758789062 -81 c 0,24,25
 239.758789062 -81 239.758789062 -81 302.258789062 -49 c 152,-1,-1
EndSplineSet
Fore
SplineSet
350 264 m 128,-1,1
 411 264 411 264 425.5 311 c 128,-1,2
 440 358 440 358 440 454 c 0,3,4
 440 567 440 567 425.5 606 c 128,-1,5
 411 645 411 645 350 645 c 128,-1,6
 289 645 289 645 271 598 c 128,-1,7
 253 551 253 551 253 454.5 c 128,-1,8
 253 358 253 358 271 311 c 128,-1,0
 289 264 289 264 350 264 c 128,-1,1
639 -201 m 2,9,10
 652 -213 652 -213 652 -230 c 128,-1,11
 652 -247 652 -247 641.5 -258.5 c 128,-1,12
 631 -270 631 -270 614 -272 c 0,13,14
 612 -272 612 -272 610 -272 c 0,15,16
 595 -272 595 -272 584 -262 c 2,17,-1
 405 -100 l 1,18,19
 325 -136 325 -136 112 -136 c 0,20,21
 82 -136 82 -136 82 -110 c 0,22,23
 82 -109 82 -109 82 -108 c 0,24,25
 83 -81 83 -81 112 -81 c 0,26,27
 240 -81 240 -81 302 -49 c 0,28,29
 316 -42 316 -42 329 -32 c 1,30,-1
 13 252 l 2,31,32
 0 264 0 264 -1 281 c 0,33,-1
 -1 282 l 0,34,35
 -1 299 -1 299 10 310 c 0,36,37
 21 322 21 322 38 324 c 0,38,39
 40 324 40 324 41 324 c 0,40,41
 56 324 56 324 68 313 c 2,42,-1
 387 26 l 1,43,44
 400 43 400 43 412 64 c 0,45,46
 443 136 443 136 443 248 c 1,47,48
 391 227 391 227 353 226 c 0,49,50
 225 226 225 226 148 284 c 0,51,52
 74 340 74 340 74 454 c 0,53,54
 74 564 74 564 150 625 c 0,55,56
 225 684 225 684 353 684 c 0,57,58
 484 684 484 684 558 562.5 c 128,-1,59
 632 441 632 441 632 274 c 0,60,61
 632 93 632 93 547 2 c 0,62,63
 515 -32 515 -32 479 -57 c 1,64,-1
 639 -201 l 2,9,10
EndSplineSet
EndChar

StartChar: uniE209
Encoding: 57865 57865 74
Width: 700
VWidth: 1639
Flags: MW
HStem: -136 38<245.9 418.342> 646 38<290.794 347>
VStem: 45 72<9.82886 169.053> 70 165<466.938 552.569> 347 82<462.891 637 684 807.109> 486 169<7.1817 109.101> 550 72<419.261 575.201>
LayerCount: 2
Back
SplineSet
429 779 m 2,0,1
 429 531 l 2,2,3
 429 515 429 515 417.5 502.5 c 128,-1,4
 406 490 406 490 388 490 c 128,-1,5
 370 490 370 490 358.5 502.5 c 128,-1,6
 347 515 347 515 347 531 c 2,7,-1
 347 779 l 2,8,9
 347 795 347 795 358.5 807.5 c 128,-1,10
 370 820 370 820 388 820 c 128,-1,11
 406 820 406 820 417.5 807.5 c 128,-1,12
 429 795 429 795 429 779 c 2,0,1
470 336 m 1,13,14
 550 423 550 423 550 504 c 0,15,16
 550 570 550 570 493.5 608 c 128,-1,17
 437 646 437 646 358 646 c 0,18,19
 302 646 302 646 268.5 611 c 128,-1,20
 235 576 235 576 235 530 c 0,21,22
 235 474 235 474 284 445 c 2,23,-1
 470 336 l 1,13,14
519 308 m 1,24,25
 655 229 655 229 655 100 c 0,26,27
 655 3 655 3 572 -66.5 c 128,-1,28
 489 -136 489 -136 345 -136 c 0,29,30
 224 -136 224 -136 134.5 -72 c 128,-1,31
 45 -8 45 -8 45 94 c 0,32,33
 45 132 45 132 67 171 c 128,-1,34
 89 210 89 210 108 229.5 c 128,-1,35
 127 249 127 249 170 290 c 1,36,37
 70 359 70 359 70 464 c 0,38,39
 70 554 70 554 147 619 c 128,-1,40
 224 684 224 684 358 684 c 0,41,42
 465 684 465 684 543.5 635.5 c 128,-1,43
 622 587 622 587 622 504 c 0,44,45
 622 415 622 415 519 308 c 1,24,25
219 261 m 1,46,47
 117 172 117 172 117 94 c 0,48,49
 117 12 117 12 185 -43 c 128,-1,50
 253 -98 253 -98 345 -98 c 0,51,52
 409 -98 409 -98 447.5 -57 c 128,-1,53
 486 -16 486 -16 486 38 c 0,54,55
 486 107 486 107 429 140 c 2,56,-1
 219 261 l 1,46,47
EndSplineSet
Fore
SplineSet
219 261 m 1,0,1
 117 172 117 172 117 94 c 0,2,3
 117 12 117 12 185 -43 c 128,-1,4
 253 -98 253 -98 345 -98 c 0,5,6
 409 -98 409 -98 447.5 -57 c 128,-1,7
 486 -16 486 -16 486 38 c 0,8,9
 486 107 486 107 429 140 c 2,10,-1
 219 261 l 1,0,1
519 308 m 1,11,12
 655 229 655 229 655 100 c 0,13,14
 655 3 655 3 572 -66.5 c 128,-1,15
 489 -136 489 -136 345 -136 c 0,16,17
 224 -136 224 -136 134.5 -72 c 128,-1,18
 45 -8 45 -8 45 94 c 0,19,20
 45 132 45 132 67 171 c 128,-1,21
 89 210 89 210 108 229.5 c 128,-1,22
 127 249 127 249 170 290 c 1,23,24
 70 359 70 359 70 464 c 0,25,26
 70 554 70 554 147 619 c 0,27,28
 221 681 221 681 347 684 c 1,29,-1
 347 779 l 2,30,31
 347 795 347 795 358.5 807.5 c 128,-1,32
 370 820 370 820 388 820 c 128,-1,33
 406 820 406 820 417.5 807.5 c 128,-1,34
 429 795 429 795 429 779 c 2,35,-1
 429 678 l 1,36,37
 492 668 492 668 544 636 c 0,38,39
 622 588 622 588 622 504 c 0,40,41
 622 415 622 415 519 308 c 1,11,12
470 336 m 1,42,43
 550 423 550 423 550 504 c 0,44,45
 550 570 550 570 494 608 c 0,46,47
 464 628 464 628 429 637 c 1,48,-1
 429 491 l 2,49,50
 429 475 429 475 417.5 462.5 c 128,-1,51
 406 450 406 450 388 450 c 128,-1,52
 370 450 370 450 358.5 462.5 c 128,-1,53
 347 475 347 475 347 491 c 2,54,-1
 347 646 l 1,55,56
 298 642 298 642 268 611 c 0,57,58
 234 576 234 576 235 530 c 0,59,60
 235 474 235 474 284 445 c 2,61,-1
 470 336 l 1,42,43
EndSplineSet
Validated: 1
EndChar

StartChar: uniE11A
Encoding: 57626 57626 77
Width: 729
Flags: MW
HStem: 240 70<163.625 228.85 440.937 529.321>
VStem: 50 77<428.92 444.228> 315 78<433.854 539.331> 552 135<63.2212 212.71>
LayerCount: 2
Fore
SplineSet
406 138 m 2,0,-1
 403 12 l 2,1,2
 403 -49 403 -49 409 -95 c 1,3,4
 551 25 551 25 552 132 c 0,5,6
 552 178 552 178 535 209 c 128,-1,7
 518 240 518 240 486 240 c 0,8,9
 449 240 449 240 428.5 210.5 c 128,-1,10
 408 181 408 181 406 138 c 2,0,-1
336 -154 m 2,11,-1
 331 18 l 1,12,13
 305 -14 305 -14 242.5 -69.5 c 128,-1,14
 180 -125 180 -125 172 -133 c 0,15,16
 166 -139 166 -139 155 -157.5 c 128,-1,17
 144 -176 144 -176 133 -186 c 128,-1,18
 122 -196 122 -196 108 -196 c 0,19,20
 92 -196 92 -196 81.5 -185 c 128,-1,21
 71 -174 71 -174 71 -154 c 2,22,-1
 50 731 l 1,23,24
 71 744 71 744 94 744 c 128,-1,25
 117 744 117 744 140 731 c 1,26,-1
 127 255 l 1,27,28
 172 310 172 310 240 310 c 0,29,30
 290 310 290 310 326 275 c 1,31,-1
 315 731 l 1,32,33
 336 744 336 744 359 744 c 128,-1,34
 382 744 382 744 405 731 c 1,35,-1
 393 255 l 1,36,37
 456 310 456 310 536 310 c 0,38,39
 600 310 600 310 643.5 260.5 c 128,-1,40
 687 211 687 211 687 144 c 0,41,42
 687 98 687 98 661 56 c 128,-1,43
 635 14 635 14 606 -10 c 128,-1,44
 577 -34 577 -34 523.5 -74.5 c 128,-1,45
 470 -115 470 -115 446 -133 c 0,46,47
 438 -139 438 -139 426 -157 c 128,-1,48
 414 -175 414 -175 401.5 -185.5 c 128,-1,49
 389 -196 389 -196 374 -196 c 0,50,51
 358 -196 358 -196 347 -183.5 c 128,-1,52
 336 -171 336 -171 336 -154 c 2,11,-1
122 12 m 2,53,54
 122 -49 122 -49 130 -98 c 1,55,56
 245 14 245 14 245 132 c 0,57,58
 245 240 245 240 192 240 c 0,59,60
 129 240 129 240 125 138 c 1,61,-1
 122 12 l 2,53,54
EndSplineSet
Validated: 1
EndChar

StartChar: uniE11C
Encoding: 57628 57628 78
Width: 597
Flags: MW
LayerCount: 2
Fore
SplineSet
349 274 m 1,0,1
 401 222 401 222 513 222 c 0,2,3
 531 222 531 222 531 204 c 1,4,-1
 547 44 l 2,5,6
 549 37 549 37 543.5 31.5 c 128,-1,7
 538 26 538 26 531 26 c 2,8,-1
 369 42 l 2,9,10
 351 46 351 46 351 60 c 0,11,12
 351 172 351 172 298 224 c 1,13,14
 246 172 246 172 246 60 c 0,15,16
 246 46 246 46 230 42 c 2,17,-1
 66 26 l 2,18,19
 59 26 59 26 53.5 31 c 128,-1,20
 48 36 48 36 50 44 c 2,21,-1
 66 204 l 1,22,23
 66 222 66 222 84 222 c 0,24,25
 196 222 196 222 248 274 c 1,26,27
 196 326 196 326 84 326 c 0,28,29
 66 326 66 326 66 344 c 1,30,-1
 50 504 l 2,31,32
 48 511 48 511 53.5 516.5 c 128,-1,33
 59 522 59 522 66 522 c 2,34,-1
 230 506 l 1,35,36
 246 502 246 502 246 488 c 0,37,38
 246 376 246 376 298 324 c 1,39,40
 350 376 350 376 351 488 c 0,41,42
 351 502 351 502 369 506 c 2,43,-1
 531 522 l 2,44,45
 538 522 538 522 543.5 517 c 128,-1,46
 549 512 549 512 547 504 c 2,47,-1
 531 344 l 1,48,49
 531 326 531 326 513 326 c 0,50,51
 401 326 401 326 349 274 c 1,0,1
EndSplineSet
Validated: 1
EndChar

StartChar: underscore
Encoding: 95 95 79
Width: 900
VWidth: 0
Flags: MW
HStem: -136 39<900 900>
LayerCount: 2
Fore
SplineSet
0 -136 m 25,0,-1
 0 -97 l 25,1,-1
 900 -97 l 25,2,-1
 900 -136 l 25,3,-1
 0 -136 l 25,0,-1
EndSplineSet
Validated: 1
EndChar

StartChar: uniE200
Encoding: 57856 57856 80
Width: 700
VWidth: 0
Flags: W
HStem: -136 48<292.084 405.964> 224 82<296.376 459 650 807.624> 636 48<290.947 407.044>
VStem: 49 190<114.511 433.489> 459 191<112 224 306 434.965>
LayerCount: 2
Back
SplineSet
349.5 636 m 128,-1,1
 279 636 279 636 256 546 c 0,2,3
 240 477 240 477 239 364 c 2,4,-1
 239 184 l 2,5,6
 239 66 239 66 256 2 c 0,7,8
 279 -88 279 -88 349.5 -88 c 128,-1,9
 420 -88 420 -88 443 2 c 0,10,11
 459 71 459 71 459 184 c 2,12,-1
 459 364 l 2,13,14
 459 477 459 477 443 546 c 0,15,0
 420 636 420 636 349.5 636 c 128,-1,1
349 684 m 128,-1,17
 485 684 485 684 568 562 c 128,-1,18
 651 440 651 440 651 274 c 128,-1,19
 651 108 651 108 568 -14 c 128,-1,20
 485 -136 485 -136 349 -136 c 128,-1,21
 213 -136 213 -136 131 -14 c 128,-1,22
 49 108 49 108 49 274 c 128,-1,23
 49 440 49 440 131 562 c 128,-1,16
 213 684 213 684 349 684 c 128,-1,17
758 224 m 2,17,-1
 346 224 l 2,18,19
 328 224 328 224 316 236 c 0,20,21
 306 246 306 246 305 264 c 0,22,23
 304 280 304 280 316 293 c 0,24,25
 328 306 328 306 346 306 c 2,26,-1
 758 306 l 2,27,28
 776 306 776 306 788 293 c 0,29,30
 798 283 798 283 799 264 c 0,31,32
 800 248 800 248 788 236 c 0,33,34
 776 224 776 224 758 224 c 2,17,-1
EndSplineSet
Refer: 5 48 N 1 0 0 1 0 0 2
Fore
SplineSet
349 684 m 128,-1,1
 485 684 485 684 568 562 c 0,2,3
 643 452 643 452 650 306 c 1,4,-1
 778 306 l 2,5,6
 796 306 796 306 808 293 c 0,7,8
 818 283 818 283 819 264 c 0,9,10
 820 248 820 248 808 236 c 128,-1,11
 796 224 796 224 778 224 c 2,12,-1
 649 224 l 1,13,14
 638 89 638 89 568 -14 c 0,15,16
 485 -136 485 -136 349 -136 c 128,-1,17
 213 -136 213 -136 131 -14 c 128,-1,18
 49 108 49 108 49 274 c 128,-1,19
 49 440 49 440 131 562 c 128,-1,0
 213 684 213 684 349 684 c 128,-1,1
349.5 636 m 0,20,21
 276.869565217 636 276.869565217 636 256 546 c 0,22,23
 239 472.6875 239 472.6875 239 364 c 2,24,-1
 239 184 l 2,25,26
 239 66 239 66 256 2 c 0,27,28
 279 -88 279 -88 349.5 -88 c 0,29,30
 422.130434783 -88 422.130434783 -88 443 2 c 0,31,32
 459 71 459 71 459 184 c 2,33,-1
 459 224 l 1,34,-1
 326 224 l 2,35,36
 308 224 308 224 296 236 c 0,37,38
 286 246 286 246 285 264 c 0,39,40
 284 280 284 280 296 293 c 128,-1,41
 308 306 308 306 326 306 c 2,42,-1
 459 306 l 1,43,-1
 459 364 l 2,44,45
 459 483.391304348 459 483.391304348 443 546 c 0,46,47
 420 636 420 636 349.5 636 c 0,20,21
EndSplineSet
EndChar

